<svg width="64" height="64" viewBox="0 0 64 64" fill="none" xmlns="http://www.w3.org/2000/svg">
<path d="M50.1 22.1L51.9 7C50 0.7 44 0 44 0C36.6 0.7 35.2 7.1 35.2 7.1V19.2H28.8V7.1C28.8 7.1 27.4 0.7 20 0C20 0 14 0.7 12.1 7L13.9 22.1C13.9 22.1 0 28.9 0 41.3C0 53.6 10.1 63.4 32 64C53.9 63.4 64 53.6 64 41.3C64 28.9 50.1 22.1 50.1 22.1ZM21.1 43C19.4 43 18.1 40.7 18.1 37.9C18.1 35.1 19.4 32.7 21.1 32.7C22.8 32.7 24.1 35 24.1 37.9C24.1 40.7 22.8 43 21.1 43ZM42.9 43C41.2 43 39.9 40.7 39.9 37.9C39.9 35.1 41.2 32.7 42.9 32.7C44.6 32.7 45.9 35 45.9 37.9C45.9 40.7 44.5 43 42.9 43Z" fill="url(#paint0_linear_43_188)"/>
<defs>
<linearGradient id="paint0_linear_43_188" x1="32" y1="0" x2="32" y2="64" gradientUnits="userSpaceOnUse">
<stop stop-color="#7443D7"/>
<stop offset="1" stop-color="#5222B2"/>
</linearGradient>
</defs>
</svg>
