<svg width="177" height="139" viewBox="0 0 177 139" fill="none" xmlns="http://www.w3.org/2000/svg">
<g opacity="0.9">
<g opacity="0.9">
<path opacity="0.5" d="M44.64 68.312C44.48 67.265 42.97 67.265 42.812 68.312L41.867 74.514C41.807 74.914 41.492 75.228 41.092 75.289L34.89 76.234C33.843 76.394 33.843 77.904 34.89 78.064L41.092 79.009C41.492 79.069 41.806 79.384 41.867 79.784L42.812 85.986C42.972 87.033 44.482 87.033 44.64 85.986L45.585 79.784C45.645 79.384 45.96 79.07 46.36 79.009L52.562 78.064C53.609 77.904 53.609 76.394 52.562 76.234L46.36 75.289C45.96 75.229 45.646 74.914 45.585 74.514L44.64 68.312ZM163.117 48.557C162.957 47.51 161.447 47.51 161.287 48.557L160.342 54.759C160.282 55.159 159.967 55.473 159.567 55.534L153.365 56.479C152.318 56.639 152.318 58.149 153.365 58.307L159.567 59.252C159.967 59.312 160.281 59.627 160.342 60.027L161.287 66.229C161.447 67.276 162.957 67.276 163.117 66.229L164.062 60.027C164.122 59.627 164.437 59.313 164.837 59.252L171.037 58.307C172.085 58.147 172.085 56.637 171.037 56.479L164.837 55.534C164.437 55.474 164.123 55.159 164.062 54.759L163.117 48.557ZM86.627 12.857C86.787 11.81 88.297 11.81 88.457 12.857L88.757 14.897C88.817 15.297 89.132 15.611 89.532 15.672L91.572 15.972C92.619 16.132 92.619 17.642 91.572 17.802L89.532 18.102C89.132 18.162 88.818 18.477 88.757 18.877L88.457 20.917C88.297 21.964 86.787 21.964 86.627 20.917L86.327 18.877C86.267 18.477 85.952 18.163 85.552 18.102L83.512 17.802C82.465 17.642 82.465 16.132 83.512 15.972L85.552 15.672C85.952 15.612 86.266 15.297 86.327 14.897L86.627 12.857Z" fill="#AEA0D6"/>
</g>
<mask id="mask0_74_103" style="mask-type:alpha" maskUnits="userSpaceOnUse" x="104" y="90" width="73" height="49">
<g opacity="0.9">
<path opacity="0.9" d="M104.483 90.8669H176.483V138.867H104.483V90.8669Z" fill="white"/>
<path opacity="0.9" fill-rule="evenodd" clip-rule="evenodd" d="M173.433 114.052V116.195C173.433 127.325 158.669 136.345 140.458 136.345C122.247 136.345 107.483 127.323 107.483 116.195V114.018C107.483 102.888 122.246 93.866 140.458 93.866C158.67 93.866 173.433 102.888 173.433 114.018V114.052Z" fill="black"/>
</g>
</mask>
<g mask="url(#mask0_74_103)">
<path opacity="0.9" d="M173.433 114.052L170.967 114.045V114.052H173.433ZM107.483 114.018V111.552H105.017V114.018H107.483ZM107.483 114.018V116.485H109.949V114.018H107.483ZM170.967 114.052V116.195H175.899V114.052H170.967ZM170.967 116.195C170.967 120.575 168.051 124.94 162.489 128.339C156.969 131.713 149.185 133.879 140.459 133.879V138.811C149.943 138.811 158.647 136.467 165.062 132.547C171.434 128.653 175.9 122.943 175.9 116.194H170.968L170.967 116.195ZM140.457 133.88C131.729 133.88 123.947 131.713 118.427 128.34C112.864 124.94 109.949 120.576 109.949 116.196H105.017C105.017 122.946 109.483 128.656 115.855 132.549C122.269 136.469 130.975 138.813 140.458 138.813V133.881L140.457 133.88ZM109.947 116.195V114.018H105.015V116.195H109.947ZM107.481 116.495V111.562V116.495ZM109.947 114.028H105.015H109.947ZM109.947 114.028C109.947 109.648 112.863 105.282 118.425 101.883C123.945 98.5089 131.728 96.3429 140.455 96.3429V91.4109C130.971 91.4109 122.265 93.7549 115.852 97.6749C109.48 101.569 105.014 107.28 105.014 114.029H109.946L109.947 114.028ZM140.457 96.3419C149.184 96.3419 156.957 98.5089 162.487 101.882C168.049 105.282 170.965 109.646 170.965 114.027H175.897C175.897 107.277 171.431 101.567 165.059 97.6729C158.644 93.7529 149.939 91.4089 140.456 91.4089V96.3409L140.457 96.3419ZM170.967 114.028V114.055L175.899 114.068V114.028H170.967Z" fill="#606063"/>
<path opacity="0.9" d="M173.433 116.195C173.433 127.325 158.669 136.345 140.458 136.345C122.247 136.345 107.483 127.323 107.483 116.195V114.018H173.433V116.195Z" fill="#BDC2C4"/>
<path opacity="0.9" d="M173.433 114.017C173.433 125.147 158.669 134.167 140.458 134.167C122.247 134.167 107.483 125.145 107.483 114.017C107.483 102.889 122.246 93.865 140.458 93.865C158.67 93.865 173.433 102.887 173.433 114.017Z" fill="#FAF9FA"/>
</g>
<mask id="mask1_74_103" style="mask-type:alpha" maskUnits="userSpaceOnUse" x="110" y="88" width="61" height="44">
<g opacity="0.9">
<path opacity="0.9" d="M110.577 88.55H170.577V131.55H110.577V88.55Z" fill="white"/>
<path opacity="0.9" fill-rule="evenodd" clip-rule="evenodd" d="M167.526 108.134V108.034C167.526 98.93 155.449 91.55 140.552 91.55C125.655 91.55 113.577 98.93 113.577 108.034V112.231C113.577 121.335 125.654 128.716 140.551 128.716C155.448 128.716 167.526 121.336 167.526 112.231V108.134Z" fill="black"/>
</g>
</mask>
<g mask="url(#mask1_74_103)">
<path opacity="0.9" d="M167.526 108.134L165.06 108.11V108.134H167.526ZM113.576 108.034V110.5H116.042V108.034H113.576ZM113.576 108.034V105.568H111.109V108.034H113.576ZM165.059 108.033V108.109L169.991 108.157L169.992 108.033H165.059ZM140.552 94.017C147.622 94.017 153.905 95.7729 158.34 98.4829C162.816 101.219 165.06 104.667 165.06 108.035H169.993C169.993 102.299 166.198 97.5049 160.913 94.2749C155.583 91.0189 148.38 89.075 140.553 89.075V94.0079L140.552 94.017ZM116.042 108.035C116.042 104.667 118.286 101.219 122.762 98.4829C127.196 95.7829 133.479 94.017 140.55 94.017V89.0839C132.723 89.0839 125.518 91.018 120.19 94.284C114.904 97.514 111.11 102.308 111.11 108.044H116.042V108.035ZM116.042 108.036L111.11 108.035L116.042 108.036ZM113.576 110.502V105.57V110.502ZM116.042 112.232V108.036H111.109V112.232H116.042ZM140.55 126.25C133.48 126.25 127.197 124.494 122.762 121.784C118.285 119.048 116.042 115.6 116.042 112.232H111.109C111.109 117.968 114.904 122.762 120.189 125.992C125.519 129.248 132.722 131.192 140.549 131.192V126.259L140.55 126.25ZM165.06 112.232C165.06 115.6 162.816 119.048 158.34 121.784C153.906 124.484 147.623 126.25 140.552 126.25V131.183C148.379 131.183 155.584 129.249 160.912 125.983C166.198 122.753 169.992 117.958 169.992 112.223H165.06V112.232ZM165.06 108.135V112.232H169.992V108.135H165.06Z" fill="#612F01"/>
<path opacity="0.9" d="M167.526 112.231C167.526 121.335 155.449 128.716 140.551 128.716C125.653 128.716 113.576 121.336 113.576 112.231V108.035H167.526V112.231Z" fill="#FEDC90"/>
<path opacity="0.9" d="M167.526 108.034C167.526 117.138 155.449 124.519 140.551 124.519C125.653 124.519 113.576 117.139 113.576 108.034C113.576 98.9291 125.653 91.55 140.551 91.55C155.449 91.55 167.526 98.93 167.526 108.034Z" fill="#D1884F"/>
</g>
<mask id="mask2_74_103" style="mask-type:alpha" maskUnits="userSpaceOnUse" x="115" y="83" width="61" height="44">
<g opacity="0.9">
<path opacity="0.9" d="M115.006 83.115H175.006V126.115H115.006V83.115Z" fill="white"/>
<path opacity="0.9" fill-rule="evenodd" clip-rule="evenodd" d="M171.955 102.757L171.957 102.597C171.957 93.493 159.88 86.113 144.982 86.113C130.084 86.113 118.008 93.493 118.007 102.596H118.006V106.792C118.006 115.896 130.083 123.277 144.981 123.277C159.879 123.277 171.955 115.897 171.955 106.792V102.757Z" fill="black"/>
</g>
</mask>
<g mask="url(#mask2_74_103)">
<path opacity="0.9" d="M171.955 102.757L169.49 102.719V102.739V102.759H171.956L171.955 102.757ZM118.007 102.597V105.063H120.473V102.597H118.007ZM118.006 102.597V100.131H115.54V102.597H118.006ZM169.49 102.598V102.718L174.42 102.794L174.422 102.597H169.489L169.49 102.598ZM144.982 88.5799C152.052 88.5799 158.336 90.3359 162.77 93.0459C167.247 95.7819 169.49 99.2299 169.49 102.598H174.423C174.423 96.8619 170.628 92.0679 165.343 88.8379C160.013 85.5819 152.81 83.6379 144.983 83.6379V88.5699L144.982 88.5799ZM120.472 102.597C120.473 99.2289 122.717 95.7809 127.194 93.0469C131.628 90.3469 137.911 88.5809 144.981 88.5809V83.6469C137.154 83.6469 129.951 85.5809 124.621 88.8469C119.334 92.0769 115.541 96.8709 115.539 102.607H120.471L120.472 102.597ZM118.005 105.063H118.006L118.005 100.13V105.063ZM120.471 106.793V102.597H115.54V106.793H120.472H120.471ZM144.981 120.811C137.911 120.811 131.627 119.055 127.193 116.345C122.716 113.609 120.473 110.161 120.473 106.793H115.54C115.54 112.529 119.335 117.323 124.62 120.553C129.948 123.809 137.153 125.753 144.98 125.753V120.82L144.981 120.811ZM169.489 106.793C169.489 110.161 167.245 113.609 162.769 116.345C158.334 119.045 152.051 120.811 144.981 120.811V125.744C152.808 125.744 160.011 123.81 165.341 120.544C170.627 117.314 174.421 112.519 174.421 106.784H169.488L169.489 106.793ZM169.489 102.757V106.793H174.422V102.757H169.489Z" fill="#612F01"/>
<path opacity="0.9" d="M171.955 106.795C171.955 115.899 159.878 123.279 144.981 123.279C130.084 123.279 118.006 115.899 118.006 106.795V102.599H171.956V106.796L171.955 106.795Z" fill="#FEDC90"/>
<path opacity="0.9" d="M171.956 102.599C171.956 111.704 159.879 119.084 144.981 119.084C130.083 119.084 118.006 111.704 118.006 102.599C118.006 93.494 130.083 86.114 144.981 86.114C159.879 86.114 171.956 93.494 171.956 102.599Z" fill="#D1884F"/>
</g>
<mask id="mask3_74_103" style="mask-type:alpha" maskUnits="userSpaceOnUse" x="104" y="75" width="61" height="44">
<g opacity="0.9">
<path opacity="0.9" d="M104.118 75.26H164.118V118.26H104.118V75.26Z" fill="white"/>
<path opacity="0.9" fill-rule="evenodd" clip-rule="evenodd" d="M161.068 94.842V94.745C161.068 85.641 148.991 78.26 134.093 78.26C119.195 78.26 107.119 85.64 107.119 94.745H107.118V98.941C107.118 108.045 119.195 115.426 134.093 115.426C148.991 115.426 161.068 108.046 161.068 98.941V94.841V94.842Z" fill="black"/>
</g>
</mask>
<g mask="url(#mask3_74_103)">
<path opacity="0.9" d="M161.068 94.8419L158.602 94.8189L158.601 94.8309V94.8429H161.068V94.8419ZM107.118 94.7449V97.2109H109.584V94.7449H107.118ZM107.117 94.7449V92.2789H104.651V94.7449H107.117ZM158.601 94.7439V94.8179L163.533 94.8649V94.7449H158.601V94.7439ZM134.091 80.7259C141.161 80.7259 147.445 82.4829 151.879 85.1919C156.356 87.9279 158.599 91.3759 158.599 94.7439H163.531C163.531 89.0079 159.737 84.2139 154.451 80.9839C149.123 77.7279 141.918 75.7839 134.091 75.7839V80.7159V80.7259ZM109.583 94.7439C109.583 91.3759 111.827 87.9279 116.303 85.1919C120.738 82.4919 127.021 80.7259 134.091 80.7259V75.7939C126.264 75.7939 119.061 77.7279 113.731 80.9939C108.445 84.2239 104.651 89.0179 104.651 94.7539H109.584L109.583 94.7439ZM109.583 94.7439H104.65H109.583ZM107.116 97.2099H107.117L107.116 92.2769V97.2099ZM109.582 98.9399V94.7439H104.65V98.9399H109.582ZM134.092 112.96C127.022 112.96 120.738 111.203 116.304 108.493C111.827 105.757 109.584 102.309 109.584 98.9409H104.652C104.652 104.677 108.447 109.471 113.732 112.701C119.06 115.957 126.265 117.901 134.092 117.901V112.969V112.96ZM158.6 98.9399C158.6 102.308 156.357 105.756 151.88 108.492C147.445 111.192 141.163 112.959 134.092 112.959V117.891C141.919 117.891 149.122 115.957 154.452 112.691C159.738 109.461 163.532 104.667 163.532 98.9309H158.599L158.6 98.9399ZM158.6 94.8399V98.9399H163.533V94.8399H158.6Z" fill="#612F01"/>
<path opacity="0.9" d="M161.068 98.9421C161.068 108.046 148.991 115.426 134.093 115.426C119.195 115.426 107.118 108.046 107.118 98.9421V94.7461H161.068V98.9421Z" fill="#FEDC90"/>
<path opacity="0.9" d="M161.068 94.745C161.068 103.849 148.991 111.229 134.093 111.229C119.195 111.229 107.118 103.849 107.118 94.745C107.118 85.641 119.195 78.26 134.093 78.26C148.991 78.26 161.068 85.64 161.068 94.745Z" fill="#D1884F"/>
</g>
<mask id="mask4_74_103" style="mask-type:alpha" maskUnits="userSpaceOnUse" x="58" y="24" width="74" height="69">
<g opacity="0.9">
<path opacity="0.9" d="M58.3 24.9189H131.762V92.157H58.3V24.9189Z" fill="white"/>
<path opacity="0.9" fill-rule="evenodd" clip-rule="evenodd" d="M119.33 46.7309L119.375 46.8089C123.927 54.6929 117.159 67.1229 104.257 74.5719C91.355 82.0209 77.207 81.6679 72.654 73.784L70.556 70.1499C66.005 62.2669 72.774 49.8369 85.675 42.3869C98.576 34.9369 112.725 35.2909 117.278 43.1769L119.331 46.7319L119.33 46.7309Z" fill="black"/>
</g>
</mask>
<g mask="url(#mask4_74_103)">
<path opacity="0.9" d="M119.33 46.731L117.205 47.983L117.199 47.973L117.194 47.963L119.33 46.73V46.731ZM72.655 73.784L71.422 71.648L73.558 70.415L74.791 72.551L72.655 73.784ZM72.655 73.784L73.888 75.92L71.752 77.153L70.519 75.017L72.655 73.784ZM70.557 70.15L68.421 71.383L70.557 70.15ZM117.277 43.175L119.413 41.942L117.277 43.175ZM117.24 48.041L117.205 47.981L121.455 45.477L121.511 45.574L117.241 48.04L117.24 48.041ZM103.025 72.437C109.148 68.902 113.711 64.239 116.195 59.675C118.705 55.067 118.923 50.959 117.24 48.043L121.51 45.577C124.378 50.545 123.49 56.594 120.526 62.035C117.54 67.519 112.266 72.795 105.489 76.71L103.023 72.438L103.025 72.437ZM74.791 72.551C76.475 75.467 80.141 77.331 85.387 77.463C90.582 77.593 96.901 75.973 103.025 72.437L105.491 76.709C98.713 80.622 91.507 82.549 85.264 82.394C79.071 82.24 73.388 79.986 70.519 75.018L74.791 72.551ZM71.421 71.649L73.887 75.921L71.421 71.649ZM72.691 68.919L74.789 72.553L70.517 75.019L68.419 71.385L72.691 68.919ZM86.907 44.525C80.784 48.06 76.221 52.723 73.735 57.287C71.225 61.895 71.007 66.003 72.691 68.92L68.419 71.386C65.551 66.418 66.439 60.369 69.403 54.928C72.39 49.444 77.663 44.168 84.44 40.253L86.906 44.525H86.907ZM115.142 44.411C113.458 41.494 109.79 39.631 104.545 39.499C99.35 39.369 93.031 40.989 86.907 44.525L84.441 40.253C91.219 36.339 98.425 34.413 104.669 34.568C110.862 34.723 116.545 36.978 119.413 41.945L115.143 44.411H115.142ZM117.194 47.966L115.142 44.411L119.412 41.945L121.465 45.5L117.193 47.966H117.194Z" fill="#612F01"/>
<path opacity="0.9" d="M117.278 43.1751C112.726 35.2911 98.576 34.9381 85.675 42.3851C72.774 49.8321 66.005 62.2651 70.555 70.1481L72.653 73.7821L119.375 46.8071L117.277 43.1731L117.278 43.1751Z" fill="#D1884F"/>
<path opacity="0.9" d="M119.376 46.8091C114.824 38.9251 100.676 38.5721 87.773 46.0191C74.87 53.4661 68.103 65.8991 72.653 73.7821C77.203 81.6651 91.353 82.0201 104.257 74.5721C117.161 67.1241 123.927 54.6921 119.375 46.8091H119.376Z" fill="#FEDC90"/>
</g>
<mask id="mask5_74_103" style="mask-type:alpha" maskUnits="userSpaceOnUse" x="0" y="0" width="73" height="73">
<g opacity="0.9">
<path opacity="0.9" d="M0 0H72.832V72.832H0V0Z" fill="white"/>
<path opacity="0.9" fill-rule="evenodd" clip-rule="evenodd" d="M15.935 54.0569C9.497 47.6189 12.818 33.8609 23.353 23.3269C33.888 12.7929 47.646 9.47193 54.083 15.9089L54.118 15.9439L57.04 18.8669C63.478 25.3049 60.157 39.0629 49.622 49.5969C39.087 60.1309 25.34 63.4519 18.902 57.0139L15.935 54.0569Z" fill="black"/>
</g>
</mask>
<g mask="url(#mask5_74_103)">
<path opacity="0.9" d="M15.935 54.0571L17.679 52.3131L19.423 54.0571L17.679 55.8011L15.935 54.0571ZM54.118 15.9441L52.374 17.6881L52.366 17.6801L54.118 15.9451V15.9441ZM15.935 54.0571L14.191 55.8011L12.447 54.0571L14.191 52.3131L15.935 54.0571ZM17.679 52.3131L14.191 55.8011L17.679 52.3131ZM25.097 25.0701C20.097 30.0701 16.897 35.7541 15.677 40.8061C14.447 45.9061 15.297 49.9311 17.679 52.3121L14.191 55.8001C10.135 51.7441 9.42801 45.6701 10.881 39.6481C12.346 33.5781 16.073 27.1161 21.608 21.5811L25.096 25.0691L25.097 25.0701ZM52.34 17.6431C49.96 15.2631 45.934 14.4101 40.834 15.6411C35.782 16.8611 30.098 20.0611 25.098 25.0611L21.61 21.5731C27.143 16.0371 33.605 12.3111 39.675 10.8471C45.697 9.3931 51.77 10.1001 55.825 14.1571L52.34 17.6431ZM52.366 17.6691L52.34 17.6431L55.828 14.1551L55.871 14.1981L52.367 17.6681L52.366 17.6691ZM55.306 20.6091L52.374 17.6761L55.862 14.1881L58.794 17.1201L55.306 20.6081V20.6091ZM47.888 47.8521C52.888 42.8521 56.088 37.1681 57.308 32.1161C58.538 27.0161 57.688 22.9911 55.306 20.6101L58.794 17.1221C62.85 21.1781 63.557 27.2521 62.104 33.2721C60.639 39.3421 56.912 45.8041 51.377 51.3391L47.889 47.8511L47.888 47.8521ZM20.645 55.2701C23.025 57.6501 27.051 58.5031 32.151 57.2721C37.203 56.0521 42.887 52.8521 47.887 47.8521L51.375 51.3401C45.84 56.8751 39.38 60.6021 33.31 62.0571C27.288 63.5111 21.215 62.8041 17.16 58.7471L20.648 55.2591L20.645 55.2701ZM17.678 52.3031L20.645 55.2701L17.157 58.7581L14.19 55.7911L17.678 52.3031ZM17.678 55.7911L14.19 52.3031L17.678 55.7911Z" fill="#612F01"/>
<path opacity="0.9" d="M18.9 57.0139C25.338 63.4519 39.096 60.1309 49.63 49.5959C60.164 39.0609 63.485 25.3029 57.048 18.8659L54.081 15.8989L15.934 54.0569L18.901 57.0239L18.9 57.0139Z" fill="#FEDC90"/>
<path opacity="0.9" d="M15.935 54.0569C22.373 60.4949 36.131 57.1739 46.665 46.6389C57.199 36.1039 60.52 22.3459 54.083 15.9089C47.646 9.47192 33.887 12.7919 23.353 23.3269C12.819 33.8619 9.49701 47.6089 15.935 54.0569Z" fill="#D1884F"/>
</g>
</g>
</svg>
