<svg width="25" height="20" viewBox="0 0 25 20" fill="none" xmlns="http://www.w3.org/2000/svg">
<path d="M20.3833 2.3446C18.8486 1.64043 17.2029 1.12163 15.4822 0.824489C15.4509 0.818754 15.4196 0.833085 15.4034 0.861749C15.1918 1.23819 14.9574 1.72928 14.7932 2.11528C12.9425 1.83821 11.1013 1.83821 9.28851 2.11528C9.12431 1.7207 8.88135 1.23819 8.66875 0.861749C8.65261 0.834042 8.62131 0.81971 8.58997 0.824489C6.87024 1.12068 5.22454 1.63948 3.68893 2.3446C3.67563 2.35033 3.66424 2.3599 3.65668 2.37231C0.535131 7.03583 -0.31999 11.5847 0.0995036 16.0772C0.101402 16.0992 0.11374 16.1202 0.130823 16.1336C2.19033 17.646 4.18531 18.5642 6.14325 19.1728C6.17458 19.1824 6.20778 19.1709 6.22773 19.1451C6.69088 18.5127 7.10373 17.8458 7.45772 17.1444C7.47861 17.1034 7.45867 17.0546 7.41597 17.0384C6.76111 16.79 6.13755 16.4871 5.53773 16.1431C5.49029 16.1154 5.48649 16.0476 5.53013 16.0151C5.65636 15.9205 5.78262 15.8221 5.90314 15.7227C5.92495 15.7046 5.95534 15.7008 5.98097 15.7122C9.92154 17.5113 14.1877 17.5113 18.0817 15.7122C18.1074 15.6998 18.1378 15.7036 18.1605 15.7218C18.2811 15.8211 18.4073 15.9205 18.5345 16.0151C18.5781 16.0476 18.5753 16.1154 18.5278 16.1431C17.928 16.4938 17.3044 16.79 16.6486 17.0374C16.6059 17.0537 16.5869 17.1034 16.6078 17.1444C16.9694 17.8448 17.3823 18.5117 17.8369 19.1442C17.8559 19.1709 17.89 19.1824 17.9214 19.1728C19.8888 18.5642 21.8838 17.646 23.9433 16.1336C23.9613 16.1202 23.9727 16.1001 23.9746 16.0782C24.4766 10.8844 23.1337 6.37276 20.4146 2.37326C20.4079 2.3599 20.3966 2.35033 20.3833 2.3446ZM8.04618 13.3418C6.8598 13.3418 5.88225 12.2526 5.88225 10.9149C5.88225 9.57731 6.84084 8.48812 8.04618 8.48812C9.26098 8.48812 10.2291 9.58687 10.2101 10.9149C10.2101 12.2526 9.25148 13.3418 8.04618 13.3418ZM16.0469 13.3418C14.8606 13.3418 13.883 12.2526 13.883 10.9149C13.883 9.57731 14.8416 8.48812 16.0469 8.48812C17.2617 8.48812 18.2298 9.58687 18.2108 10.9149C18.2108 12.2526 17.2617 13.3418 16.0469 13.3418Z" fill="#8277AF"/>
</svg>
