<svg width="51" height="51" viewBox="0 0 51 51" fill="none" xmlns="http://www.w3.org/2000/svg">
<path fill-rule="evenodd" clip-rule="evenodd" d="M1.94278 30.3728L1.93322 30.8158C1.93322 31.3768 1.97785 31.9299 2.0655 32.4757H1.93322V33.334C1.93314 33.75 1.95788 34.1656 2.00733 34.5787C2.96836 42.5929 13.119 48.8961 25.5 48.8961C37.8811 48.8961 48.0317 42.5913 48.9919 34.5787C49.0414 34.1656 49.0661 33.75 49.066 33.334V32.4757H48.9337C49.0219 31.9268 49.0661 31.3718 49.066 30.8158C49.0659 30.6681 49.0628 30.5204 49.0565 30.3728C48.7019 21.9833 38.2899 15.2544 25.5 15.2544C12.7102 15.2544 2.29819 21.9833 1.94278 30.3728ZM0.00637501 30.3728C0.181688 25.2536 3.37955 20.9537 7.83169 18.0132C12.4456 14.966 18.6971 13.1499 25.4984 13.1499C32.2998 13.1499 38.5512 14.9668 43.1652 18.0132C47.6165 20.9537 50.8152 25.2528 50.9905 30.3728H51V33.334C51 38.6491 47.7472 43.1116 43.1667 46.1358C38.5528 49.183 32.3022 50.9999 25.5 50.9999C18.6979 50.9999 12.4472 49.183 7.83329 46.1366C3.25285 43.1124 0 38.6483 0 33.3348V30.3736H0.00796876L0.00637501 30.3728Z" fill="#606063"/>
<path d="M49.0668 33.335C49.0668 41.9301 38.5162 48.898 25.5 48.898C12.4839 48.898 1.93402 41.9301 1.93402 33.335V30.8711H49.0668V33.335Z" fill="#BEBEBE"/>
<path d="M49.0668 30.8168C49.0668 39.4119 38.5162 46.3798 25.5 46.3798C12.4839 46.3798 1.93402 39.4119 1.93402 30.8168C1.93402 22.2217 12.4846 15.2546 25.5 15.2546C38.5154 15.2546 49.0668 22.2217 49.0668 30.8176V30.8168Z" fill="#FAF9FA"/>
<path fill-rule="evenodd" clip-rule="evenodd" d="M5.55979 26.4205V26.45C5.56003 27.1502 5.65246 27.8473 5.83471 28.5234H5.55979V29.4351C5.55979 29.8375 5.59007 30.2351 5.64984 30.6264C6.54792 36.544 14.0648 41.1611 23.205 41.1611C32.3452 41.1611 39.8613 36.5424 40.7602 30.6264C40.8201 30.2321 40.8502 29.8339 40.8502 29.4351V28.5234H40.5753C40.7525 27.8659 40.8449 27.1883 40.8502 26.5073V26.4492V26.4197C40.8263 19.957 32.9357 14.7215 23.2058 14.7215C13.476 14.7215 5.58529 19.957 5.56139 26.4197L5.55979 26.4205ZM3.62577 26.4205V29.4351C3.62577 33.6824 6.20765 37.1887 9.71869 39.5235C13.2624 41.8791 18.0349 43.2672 23.2034 43.2672C28.372 43.2672 33.1444 41.8791 36.6881 39.5235C40.1984 37.1902 42.7811 33.6848 42.7811 29.4351V26.45C42.7811 22.2026 40.1992 18.6964 36.6881 16.3631C33.1444 14.0075 28.372 12.6194 23.2034 12.6194C18.0349 12.6194 13.2624 14.0075 9.71869 16.3631C6.21642 18.69 3.63693 22.1859 3.62577 26.4213V26.4205Z" fill="#633001"/>
<path d="M40.8478 29.4352C40.8478 35.9122 32.9484 41.1628 23.2034 41.1628C13.4584 41.1628 5.55901 35.9122 5.55901 29.4352V26.6836H40.8478V29.4352Z" fill="#FEDC90"/>
<path d="M40.8478 26.4485C40.8478 32.9255 32.9484 38.1761 23.2034 38.1761C13.4584 38.1761 5.55901 32.9271 5.55901 26.4485C5.55901 19.9699 13.4672 14.7217 23.2034 14.7217C32.9397 14.7217 40.8478 19.9723 40.8478 26.4485Z" fill="#D1884F"/>
<path fill-rule="evenodd" clip-rule="evenodd" d="M10.8773 20.1108V20.1403C10.8776 20.8405 10.97 21.5376 11.1523 22.2137H10.8773V23.1254C10.8773 23.5278 10.9076 23.9254 10.9674 24.3167C11.8655 30.2343 19.3824 34.853 28.5226 34.853C37.6627 34.853 45.1789 30.2343 46.0777 24.3167C46.1376 23.9224 46.1677 23.5242 46.1678 23.1254V22.2137H45.8929C46.0682 21.5587 46.1638 20.8854 46.1678 20.1976V20.1395V20.11C46.1439 13.6473 38.2532 8.41186 28.5234 8.41186C18.7935 8.41186 10.9029 13.6473 10.8789 20.11L10.8773 20.1108ZM8.94413 20.1108V23.1254C8.94413 27.3727 11.526 30.879 15.0378 33.2138C18.5815 35.5694 23.354 36.9575 28.5226 36.9575C33.6911 36.9575 38.4636 35.5694 42.0073 33.2138C45.5175 30.8806 48.1002 27.3751 48.1002 23.1254V20.1403C48.1002 15.8929 45.5183 12.3867 42.0073 10.0518C38.4636 7.69626 33.6911 6.30811 28.5226 6.30811C23.354 6.30811 18.5799 7.69786 15.037 10.0526C11.5348 12.3795 8.95529 15.8754 8.94413 20.1108Z" fill="#633001"/>
<path d="M46.1654 23.1251C46.1654 29.6022 38.266 34.8528 28.521 34.8528C18.776 34.8528 10.8774 29.6022 10.8774 23.1251V20.3735H46.1662V23.1251H46.1654Z" fill="#FEDC90"/>
<path d="M46.1654 20.1402C46.1654 26.6172 38.266 31.8678 28.521 31.8678C18.776 31.8678 10.8774 26.6172 10.8774 20.1402C10.8774 13.6632 18.7768 8.4126 28.5218 8.4126C38.2668 8.4126 46.1662 13.664 46.1662 20.1402H46.1654Z" fill="#D1884F"/>
<path fill-rule="evenodd" clip-rule="evenodd" d="M5.55979 13.8019V13.8314C5.56003 14.5316 5.65246 15.2287 5.83471 15.9048H5.55979V16.8165C5.55979 17.2189 5.59007 17.6165 5.64984 18.0078C6.54792 23.9254 14.0648 28.5425 23.205 28.5425C32.3452 28.5425 39.8613 23.9238 40.7602 18.0078C40.8201 17.6135 40.8502 17.2153 40.8502 16.8165V15.9056H40.5753C40.7525 15.2481 40.8449 14.5705 40.8502 13.8895V13.8314V13.8019C40.8239 7.33763 32.9349 2.10375 23.205 2.10375C13.4752 2.10375 5.5829 7.33763 5.55979 13.8019ZM3.62577 13.8019V16.8165C3.62577 21.0638 6.20765 24.5701 9.71869 26.9049C13.2624 29.2605 18.0349 30.6486 23.2034 30.6486C28.372 30.6486 33.1444 29.2605 36.6881 26.9049C40.1984 24.5717 42.7811 21.0662 42.7811 16.8165V13.8314C42.7811 9.58402 40.1992 6.07777 36.6881 3.74292C33.1452 1.38816 28.3727 0 23.205 0C18.0373 0 13.2624 1.38816 9.71948 3.74372C6.21721 6.07219 3.63773 9.56649 3.62577 13.8019Z" fill="#633001"/>
<path d="M40.8478 16.8163C40.8478 23.2933 32.9484 28.5439 23.2034 28.5439C13.4584 28.5439 5.55901 23.2925 5.55901 16.8163V14.0647H40.8478V16.8163Z" fill="#FEDC90"/>
<path d="M40.8478 13.8306C40.8478 20.3076 32.9484 25.5582 23.2034 25.5582C13.4584 25.5582 5.55901 20.3076 5.55901 13.8306C5.55901 7.35358 13.4672 2.10376 23.2034 2.10376C32.9397 2.10376 40.8478 7.35358 40.8478 13.8306Z" fill="#D1884F"/>
<path fill-rule="evenodd" clip-rule="evenodd" d="M9.73304 14.5608C9.73304 16.7235 11.1778 18.6599 13.4568 19.9636L11.8774 22.9383V30.4672C11.8774 31.4633 12.6185 32.2697 13.5349 32.2697C14.4513 32.2697 15.1924 31.4625 15.1924 30.4672V24.4803L16.8914 21.28C17.9775 21.5302 19.1441 21.6665 20.3578 21.6665C26.226 21.6665 30.9825 18.4854 30.9825 14.5616C30.9825 10.6377 26.2172 7.45581 20.3578 7.45581C14.4984 7.45581 9.73304 10.6369 9.73304 14.5608Z" fill="url(#paint0_linear_74_235)"/>
<path fill-rule="evenodd" clip-rule="evenodd" d="M13.4568 19.9619L12.7317 19.5061C10.875 18.2271 9.73384 16.4827 9.73384 14.5599C9.73384 10.636 14.4912 7.45491 20.3586 7.45491C26.226 7.45491 30.9833 10.636 30.9833 14.5599C30.9833 18.4837 26.226 21.6648 20.3586 21.6648C19.1922 21.6672 18.0294 21.5376 16.8922 21.2783L15.1932 24.4786V30.4663C15.1932 31.4624 14.4521 32.2688 13.5357 32.2688C12.6193 32.2688 11.8782 31.4616 11.8782 30.4663V22.9374L13.4576 19.9627L13.4568 19.9619ZM10.1857 22.9685V30.4655C10.1857 32.4776 11.6854 34.1088 13.5349 34.1088C15.3845 34.1088 16.8842 32.4776 16.8842 30.4671V24.9726L17.7655 23.3127C18.6236 23.4419 19.4901 23.5063 20.3578 23.5056C23.5453 23.5056 26.5256 22.6434 28.7569 21.1524C30.9594 19.6798 32.6743 17.4007 32.6743 14.5607C32.6743 11.7206 30.9586 9.44312 28.7569 7.9689C26.5272 6.47874 23.5533 5.61572 20.3578 5.61572C17.1623 5.61572 14.1884 6.47874 11.9587 7.9689C9.75615 9.44152 8.04128 11.7206 8.04128 14.5591C8.04128 17.0517 9.35373 19.1044 11.1778 20.5755L10.4247 21.9939C10.345 22.1246 10.2956 22.2648 10.255 22.4163C10.2056 22.5979 10.1753 22.7844 10.1865 22.9693L10.1857 22.9685Z" fill="#633001"/>
<path d="M13.0528 11.5676C13.0528 13.5996 15.4339 15.2491 18.3704 15.2491C21.3069 15.2491 23.6879 13.6012 23.6879 11.5676C23.6879 9.53392 21.3069 7.88599 18.3704 7.88599C15.4339 7.88599 13.0528 9.53392 13.0528 11.5676Z" fill="#9E7200"/>
<path d="M13.0528 9.9895H23.6879V11.5673H13.0528V9.9895Z" fill="#9E7200"/>
<path d="M13.0528 9.98967C13.0528 12.0217 15.4339 13.6696 18.3704 13.6696C21.3069 13.6696 23.6879 12.0217 23.6879 9.98967C23.6879 7.95764 21.3069 6.30811 18.3704 6.30811C15.4339 6.30811 13.0528 7.95604 13.0528 9.98967Z" fill="#F0B90B"/>
<path d="M16.3519 9.5465L17.85 8.50897C18.0019 8.40178 18.1833 8.34424 18.3692 8.34424C18.5551 8.34424 18.7365 8.40178 18.8884 8.50897L20.3865 9.5465C20.6853 9.75369 20.6853 10.227 20.3865 10.4334L18.8884 11.471C18.7365 11.5781 18.5551 11.6357 18.3692 11.6357C18.1833 11.6357 18.0019 11.5781 17.85 11.471L16.3519 10.4334C16.0531 10.2262 16.0531 9.75289 16.3519 9.5465Z" fill="#9E7200"/>
<path fill-rule="evenodd" clip-rule="evenodd" d="M13.7015 5.83459C14.9741 4.95325 16.6292 4.46875 18.3696 4.46875C20.1099 4.46875 21.7643 4.95325 23.0377 5.83459C24.2903 6.7016 25.3789 8.12561 25.3789 9.9895V11.5673C25.3789 13.432 24.2903 14.8552 23.0377 15.7222C21.765 16.6028 20.1099 17.0881 18.3696 17.0881C16.6292 17.0881 14.9749 16.6036 13.7015 15.7222C12.4488 14.8552 11.3602 13.4312 11.3602 11.5673V9.9895C11.3602 8.12482 12.4488 6.7016 13.7015 5.83459ZM18.3696 6.30953C15.4331 6.30953 13.052 7.95747 13.052 9.9911V11.5689C13.052 13.6009 15.4331 15.2505 18.3696 15.2505C21.306 15.2505 23.6871 13.6025 23.6871 11.5689V9.9911C23.6871 7.95907 21.306 6.30953 18.3696 6.30953Z" fill="#633001"/>
<defs>
<linearGradient id="paint0_linear_74_235" x1="20.4725" y1="7.69408" x2="20.4725" y2="32.0832" gradientUnits="userSpaceOnUse">
<stop stop-color="#9F4A08"/>
<stop offset="0.37" stop-color="#7D3900"/>
<stop offset="1" stop-color="#8D4104"/>
</linearGradient>
</defs>
</svg>
