<svg width="21" height="20" viewBox="0 0 21 20" fill="none" xmlns="http://www.w3.org/2000/svg">
<path fill-rule="evenodd" clip-rule="evenodd" d="M10.4927 5.66169e-07C8.00031 0.00258756 5.5901 0.870248 3.69274 2.44793C1.79539 4.02561 0.534544 6.2105 0.135515 8.61216C-0.263514 11.0138 0.225279 13.4757 1.51455 15.558C2.80381 17.6402 4.80954 19.207 7.17329 19.9785C7.69818 20.074 7.89027 19.7563 7.89027 19.4852C7.89027 19.2463 7.88048 18.4342 7.87681 17.5742C4.95507 18.1953 4.33843 16.3643 4.33843 16.3643C3.86003 15.1795 3.17242 14.8641 3.17242 14.8641C2.21931 14.2287 3.24339 14.2419 3.24339 14.2419C4.29805 14.3135 4.85352 15.2977 4.85352 15.2977C5.79073 16.8659 7.31033 16.4121 7.91229 16.1505C8.0065 15.4876 8.27935 15.0349 8.5791 14.7793C6.24098 14.5249 3.79396 13.6483 3.79396 9.71753C3.78087 8.7002 4.16849 7.71681 4.87677 6.97044C4.76788 6.71245 4.40817 5.66975 4.97832 4.25679C4.97832 4.25679 5.86047 3.98208 7.86702 5.30785C9.589 4.84739 11.4061 4.84739 13.1281 5.30785C15.1322 3.98208 16.0131 4.25679 16.0131 4.25679C16.5845 5.66975 16.2248 6.71245 16.1159 6.97044C16.8248 7.71633 17.2122 8.70014 17.1975 9.71753C17.1975 13.659 14.7407 14.5225 12.4013 14.7758C12.7782 15.0947 13.1134 15.7181 13.1134 16.6748C13.1134 18.046 13.1012 19.1508 13.1012 19.4876C13.1012 19.7611 13.2908 20.0848 13.8231 19.9797C16.1886 19.2086 18.1959 17.641 19.4859 15.5573C20.7758 13.4737 21.2642 11.0099 20.8636 8.60695C20.4631 6.20397 19.1997 4.01851 17.2996 2.44159C15.3995 0.86467 12.9866 -0.000808096 10.4927 5.66169e-07Z" fill="#8277AF"/>
</svg>
