<svg width="20" height="19" viewBox="0 0 20 19" fill="none" xmlns="http://www.w3.org/2000/svg">
<path d="M2.252 7.6C2.08416 8.22073 1.99949 8.85911 2 9.5C2 10.1555 2.088 10.792 2.252 11.4H5.1C4.96518 10.1366 4.96518 8.86343 5.1 7.6H2.252ZM3.07 5.7H5.416C5.682 4.54385 6.066 3.50835 6.537 2.6467C5.08518 3.31115 3.87722 4.37497 3.07 5.7ZM17.748 7.6H14.9C15.0348 8.86343 15.0348 10.1366 14.9 11.4H17.748C18.0847 10.1535 18.0847 8.84648 17.748 7.6ZM16.93 5.7C16.1228 4.37497 14.9148 3.31115 13.463 2.6467C13.935 3.50835 14.318 4.54385 14.584 5.7H16.93ZM7.112 7.6C7.03708 8.23083 6.99968 8.86517 7 9.5C7 10.1508 7.038 10.7872 7.112 11.4H12.888C13.0386 10.1374 13.0386 8.86263 12.888 7.6H7.112ZM7.47 5.7H12.53C12.348 4.98588 12.0855 4.29249 11.747 3.63185C11.119 2.4396 10.447 1.9 10 1.9C9.552 1.9 8.881 2.4396 8.253 3.63185C7.938 4.23225 7.673 4.9305 7.47 5.7ZM3.07 13.3C3.87722 14.625 5.08518 15.6889 6.537 16.3533C6.065 15.4917 5.682 14.4562 5.416 13.3H3.07ZM16.93 13.3H14.584C14.318 14.4562 13.934 15.4917 13.463 16.3533C14.9148 15.6889 16.1228 14.625 16.93 13.3ZM7.47 13.3C7.673 14.0695 7.938 14.7677 8.253 15.3681C8.881 16.5604 9.553 17.1 10 17.1C10.448 17.1 11.119 16.5604 11.747 15.3681C12.062 14.7677 12.327 14.0695 12.53 13.3H7.47ZM10 19C4.477 19 0 14.7469 0 9.5C0 4.25315 4.477 0 10 0C15.523 0 20 4.25315 20 9.5C20 14.7469 15.523 19 10 19Z" fill="#8277AF"/>
</svg>
