<svg width="63" height="63" viewBox="0 0 63 63" fill="none" xmlns="http://www.w3.org/2000/svg">
<path d="M60.1144 22.5612C60.4212 22.8675 60.6102 23.2722 60.648 23.7041C60.6859 24.1359 60.5702 24.5673 60.3213 24.9223C50.9364 38.3312 39.3313 50.0395 26.0061 59.5428L24.9541 60.2934C24.5804 60.5597 24.1244 60.685 23.667 60.6469C23.2097 60.6089 22.7807 60.41 22.4561 60.0856L17.7181 55.3476C19.0703 53.9533 19.8199 52.083 19.8049 50.1407C19.79 48.1985 19.0117 46.34 17.6382 44.9666C16.2647 43.5933 14.4062 42.8152 12.4639 42.8004C10.5216 42.7856 8.65145 43.5354 7.25722 44.8877L2.89949 40.5299C2.07207 39.7025 2.18535 38.3265 3.13885 37.6468L4.19282 36.8962C17.1957 27.6224 28.5199 16.1969 37.6776 3.11197C37.8287 2.89721 38.0248 2.71804 38.2523 2.58699C38.4799 2.45595 38.7333 2.37619 38.9948 2.3533C39.2564 2.33041 39.5198 2.36493 39.7667 2.45447C40.0135 2.544 40.2378 2.68637 40.4238 2.87163L44.8584 7.30619C43.5126 8.70169 42.7684 10.5698 42.786 12.5084C42.8035 14.447 43.5815 16.3013 44.9523 17.6722C46.3232 19.0431 48.1775 19.821 50.1161 19.8386C52.0548 19.8561 53.9228 19.1119 55.3183 17.7661L60.1134 22.5612H60.1144Z" fill="#DBCDF9"/>
<path d="M62.2124 23.8711L45.277 45.315L23.3731 61.8969L19.1601 57.6534L17.6402 55.8114L19.1601 53.6119L19.692 51.4123L19.3985 49.068L18.5189 46.8684L17.0532 45.1092L15.2939 43.937L13.3879 43.3509H11.0436L8.55146 44.2305L7.08575 45.5505L3.56726 41.2991L9.29023 40.4451C27.0433 37.7973 43.8174 30.6293 58.0015 19.6296L62.2144 23.8731L62.2124 23.8711Z" fill="#A28BD4"/>
<path fill-rule="evenodd" clip-rule="evenodd" d="M15.5796 55.5534C15.5798 55.2449 15.6409 54.9395 15.7594 54.6547C15.8779 54.3699 16.0515 54.1113 16.2701 53.8937L16.278 53.8858C17.1897 52.9311 17.6917 51.6576 17.6765 50.3377C17.6613 49.0177 17.1302 47.756 16.1968 46.8226C15.2634 45.8892 14.0017 45.3581 12.6818 45.3429C11.3618 45.3277 10.0883 45.8297 9.13362 46.7414L9.12574 46.7493C8.90821 46.968 8.64966 47.1417 8.3649 47.2603C8.08014 47.3789 7.77478 47.4401 7.46631 47.4405C7.15783 47.4408 6.85232 47.3803 6.56728 47.2624C6.28224 47.1445 6.02328 46.9714 5.80523 46.7532L1.23966 42.1887C0.804649 41.7525 0.469748 41.227 0.258204 40.6485C0.0466611 40.0699 -0.0364564 39.4523 0.0146208 38.8385C0.0656979 38.2246 0.249746 37.6292 0.553992 37.0936C0.858237 36.558 1.27539 36.095 1.7765 35.7368L2.83047 34.9862L4.19276 36.8971L3.13878 37.6477C2.18331 38.3274 2.07004 39.7025 2.89942 40.5309L7.46302 45.0945L7.47287 45.0846C10.3738 42.1956 15.0497 42.1985 17.9338 45.0846C19.3191 46.4699 20.0984 48.3481 20.1006 50.3072C20.1028 52.2663 19.3278 54.1463 17.9456 55.5347L17.923 55.5574L22.4521 60.0865C22.7767 60.4109 23.2057 60.6098 23.663 60.6479C24.1204 60.6859 24.5764 60.5607 24.9501 60.2943L26.0021 59.5437C39.3273 50.0404 50.9324 38.3321 60.3173 24.9232C60.5661 24.5683 60.6819 24.1369 60.644 23.705C60.6062 23.2731 60.4172 22.8684 60.1104 22.5621L55.3528 17.8045L55.2483 17.9089C53.8578 19.2806 51.9812 20.0467 50.0279 20.04C48.0747 20.0332 46.2034 19.2543 44.8223 17.8731C43.4412 16.4918 42.6624 14.6205 42.6559 12.6672C42.6493 10.714 43.4156 8.83741 44.7874 7.44699L44.8918 7.34258L40.4218 2.87058C40.2357 2.68533 40.0115 2.54295 39.7646 2.45342C39.5178 2.36389 39.2544 2.32937 38.9928 2.35226C38.7312 2.37515 38.4778 2.45491 38.2503 2.58595C38.0228 2.717 37.8266 2.89617 37.6756 3.11093C28.5182 16.1957 17.1943 27.6213 4.19177 36.8952L2.82949 34.9842C15.6152 25.8663 26.7505 14.6327 35.7558 1.76736C36.1031 1.27168 36.5546 0.858035 37.0788 0.555452C37.603 0.252869 38.187 0.0686884 38.7899 0.0158401C39.3929 -0.0370081 40 0.0427572 40.5689 0.249536C41.1377 0.456315 41.6543 0.785095 42.0826 1.21279L46.5546 5.68479C46.7738 5.90391 46.9475 6.16434 47.0655 6.45102C47.1834 6.7377 47.2434 7.04494 47.2418 7.35494C47.2403 7.66494 47.1772 7.97155 47.0564 8.25703C46.9356 8.54251 46.7593 8.80119 46.5378 9.0181L46.5014 9.05454C45.5896 10.0092 45.0877 11.2827 45.1028 12.6027C45.118 13.9227 45.6491 15.1843 46.5825 16.1177C47.516 17.0512 48.7776 17.5823 50.0976 17.5974C51.4176 17.6126 52.6911 17.1106 53.6457 16.1989L53.6822 16.1625C53.8991 15.941 54.1577 15.7647 54.4432 15.6439C54.7287 15.523 55.0353 15.46 55.3453 15.4584C55.6553 15.4569 55.9626 15.5168 56.2492 15.6348C56.5359 15.7528 56.7963 15.9264 57.0155 16.1457L61.7731 20.9034C63.2113 22.3415 63.4083 24.6031 62.243 26.2678C52.7051 39.8952 40.9108 51.7945 27.3683 61.4527L26.3163 62.2033C25.4908 62.7922 24.4832 63.0693 23.4727 62.9852C22.4621 62.9012 21.5141 62.4615 20.7972 61.7443L16.2681 57.2152C16.0501 56.9971 15.8772 56.7382 15.7594 56.4532C15.6416 56.1682 15.5812 55.8628 15.5816 55.5544L15.5796 55.5534Z" fill="#633001"/>
<path d="M31.5093 11.0669L32.5456 12.1032C32.6545 12.2121 32.7409 12.3414 32.7998 12.4837C32.8588 12.626 32.8891 12.7785 32.8891 12.9326C32.8891 13.0866 32.8588 13.2391 32.7998 13.3814C32.7409 13.5237 32.6545 13.653 32.5456 13.7619C32.4367 13.8709 32.3074 13.9573 32.1651 14.0162C32.0227 14.0752 31.8702 14.1055 31.7162 14.1055C31.5622 14.1055 31.4096 14.0752 31.2673 14.0162C31.125 13.9573 30.9957 13.8709 30.8868 13.7619L29.8506 12.7257C29.7416 12.6168 29.6552 12.4875 29.5963 12.3452C29.5374 12.2029 29.507 12.0504 29.507 11.8963C29.507 11.7423 29.5374 11.5898 29.5963 11.4475C29.6552 11.3052 29.7416 11.1758 29.8506 11.0669C29.9595 10.958 30.0888 10.8716 30.2311 10.8127C30.3734 10.7537 30.5259 10.7234 30.68 10.7234C30.834 10.7234 30.9865 10.7537 31.1288 10.8127C31.2711 10.8716 31.4004 10.958 31.5093 11.0669Z" fill="#633001"/>
<path d="M35.8631 15.4217L36.8993 16.4579C37.0083 16.5668 37.0947 16.6961 37.1536 16.8384C37.2125 16.9807 37.2429 17.1333 37.2429 17.2873C37.2429 17.4413 37.2125 17.5939 37.1536 17.7362C37.0947 17.8785 37.0083 18.0078 36.8993 18.1167C36.7904 18.2256 36.6611 18.312 36.5188 18.3709C36.3765 18.4299 36.224 18.4602 36.07 18.4602C35.9159 18.4602 35.7634 18.4299 35.6211 18.3709C35.4788 18.312 35.3495 18.2256 35.2406 18.1167L34.2043 17.0804C34.0954 16.9715 34.009 16.8422 33.9501 16.6999C33.8911 16.5576 33.8608 16.4051 33.8608 16.2511C33.8608 16.097 33.8911 15.9445 33.9501 15.8022C34.009 15.6599 34.0954 15.5306 34.2043 15.4217C34.3132 15.3128 34.4425 15.2264 34.5848 15.1674C34.7272 15.1085 34.8797 15.0781 35.0337 15.0781C35.1877 15.0781 35.3403 15.1085 35.4826 15.1674C35.6249 15.2264 35.7542 15.3128 35.8631 15.4217Z" fill="#633001"/>
<path d="M41.2551 22.4705C41.1463 22.5795 41.017 22.666 40.8747 22.725C40.7323 22.784 40.5798 22.8144 40.4257 22.8144C40.2717 22.8144 40.1191 22.784 39.9768 22.725C39.8345 22.666 39.7052 22.5795 39.5964 22.4705L38.3523 21.2264C38.2434 21.1175 38.157 20.9882 38.098 20.8459C38.0391 20.7036 38.0087 20.5511 38.0087 20.3971C38.0087 20.243 38.0391 20.0905 38.098 19.9482C38.157 19.8059 38.2434 19.6766 38.3523 19.5677C38.4612 19.4587 38.5905 19.3723 38.7328 19.3134C38.8751 19.2545 39.0276 19.2241 39.1817 19.2241C39.3357 19.2241 39.4882 19.2545 39.6305 19.3134C39.7728 19.3723 39.9021 19.4587 40.011 19.5677L41.2551 20.8117C41.3641 20.9206 41.4506 21.0499 41.5096 21.1922C41.5686 21.3345 41.599 21.4871 41.599 21.6411C41.599 21.7952 41.5686 21.9477 41.5096 22.0901C41.4506 22.2324 41.3641 22.3617 41.2551 22.4705Z" fill="#633001"/>
<path d="M45.6089 26.8243C45.5001 26.9333 45.3708 27.0198 45.2285 27.0788C45.0862 27.1378 44.9336 27.1681 44.7796 27.1681C44.6255 27.1681 44.4729 27.1378 44.3306 27.0788C44.1883 27.0198 44.059 26.9333 43.9502 26.8243L42.7061 25.5802C42.5972 25.4713 42.5108 25.342 42.4518 25.1997C42.3929 25.0574 42.3625 24.9048 42.3625 24.7508C42.3625 24.5968 42.3929 24.4443 42.4518 24.302C42.5108 24.1596 42.5972 24.0303 42.7061 23.9214C42.815 23.8125 42.9443 23.7261 43.0866 23.6672C43.2289 23.6082 43.3814 23.5779 43.5355 23.5779C43.6895 23.5779 43.842 23.6082 43.9843 23.6672C44.1266 23.7261 44.2559 23.8125 44.3649 23.9214L45.6089 25.1655C45.718 25.2744 45.8044 25.4037 45.8634 25.546C45.9224 25.6883 45.9528 25.8408 45.9528 25.9949C45.9528 26.149 45.9224 26.3015 45.8634 26.4438C45.8044 26.5861 45.718 26.7154 45.6089 26.8243Z" fill="#633001"/>
<path fill-rule="evenodd" clip-rule="evenodd" d="M48.7177 28.2762L49.7539 29.3124C49.8628 29.4213 49.9492 29.5506 50.0082 29.6929C50.0671 29.8352 50.0974 29.9878 50.0974 30.1418C50.0974 30.2958 50.0671 30.4484 50.0082 30.5907C49.9492 30.733 49.8628 30.8623 49.7539 30.9712C49.645 31.0801 49.5157 31.1665 49.3734 31.2254C49.2311 31.2844 49.0785 31.3147 48.9245 31.3147C48.7705 31.3147 48.618 31.2844 48.4756 31.2254C48.3333 31.1665 48.204 31.0801 48.0951 30.9712L47.0589 29.934C46.95 29.825 46.8636 29.6957 46.8046 29.5534C46.7457 29.4111 46.7153 29.2586 46.7153 29.1046C46.7153 28.9505 46.7457 28.798 46.8046 28.6557C46.8636 28.5134 46.95 28.3841 47.0589 28.2752C47.1678 28.1663 47.2971 28.0799 47.4394 28.0209C47.5817 27.962 47.7342 27.9316 47.8883 27.9316C48.0423 27.9316 48.1948 27.962 48.3371 28.0209C48.4794 28.0799 48.6087 28.1663 48.7177 28.2752V28.2762Z" fill="#633001"/>
<path d="M53.0715 32.6302L54.1077 33.6664C54.2166 33.7753 54.303 33.9046 54.362 34.0469C54.4209 34.1892 54.4513 34.3418 54.4513 34.4958C54.4513 34.6498 54.4209 34.8023 54.362 34.9447C54.303 35.087 54.2166 35.2163 54.1077 35.3252C53.9988 35.4341 53.8695 35.5205 53.7272 35.5794C53.5849 35.6384 53.4324 35.6687 53.2783 35.6687C53.1243 35.6687 52.9718 35.6384 52.8295 35.5794C52.6872 35.5205 52.5579 35.4341 52.4489 35.3252L51.4127 34.2889C51.3038 34.18 51.2174 34.0507 51.1584 33.9084C51.0995 33.7661 51.0692 33.6136 51.0692 33.4596C51.0692 33.3055 51.0995 33.153 51.1584 33.0107C51.2174 32.8684 51.3038 32.7391 51.4127 32.6302C51.5216 32.5212 51.6509 32.4349 51.7932 32.3759C51.9355 32.317 52.0881 32.2866 52.2421 32.2866C52.3961 32.2866 52.5486 32.317 52.6909 32.3759C52.8333 32.4349 52.9626 32.5212 53.0715 32.6302Z" fill="#633001"/>
<path fill-rule="evenodd" clip-rule="evenodd" d="M25.4446 29.2407C24.1837 27.9799 24.1837 25.938 25.4446 24.6781C26.8728 23.2499 29.2467 23.4705 30.3874 25.1352L33.2617 29.3294C35.7705 28.5246 38.433 28.63 40.1962 30.3952C41.7723 31.9712 42.0225 34.3175 41.4846 36.5447C40.9409 38.7964 39.5668 41.1694 37.5446 43.1906C35.5223 45.2119 33.1514 46.586 30.8986 47.1307C28.6725 47.6685 26.335 47.4262 24.7491 45.8423C22.9958 44.0889 22.8796 41.4461 23.6686 38.9521L19.4566 36.066C17.7919 34.9233 17.5713 32.5514 18.9996 31.1231C20.2604 29.8623 22.3024 29.8623 23.5622 31.1231L26.4808 34.0417L27.3998 33.0567L28.3602 32.1672L25.4446 29.2516V29.2407Z" fill="#633001"/>
<path d="M30.5284 41.2822C31.0792 40.7313 30.8762 39.6352 30.0749 38.834C29.2737 38.0327 28.1775 37.8297 27.6267 38.3805C27.0758 38.9314 27.2788 40.0275 28.0801 40.8288C28.8814 41.63 29.9775 41.8331 30.5284 41.2822Z" fill="#DBCDF9"/>
<path d="M35.7879 36.0224C36.3387 35.4716 36.1357 34.3755 35.3345 33.5742C34.5332 32.7729 33.4371 32.5699 32.8862 33.1208C32.3353 33.6716 32.5384 34.7677 33.3396 35.569C34.1409 36.3703 35.237 36.5733 35.7879 36.0224Z" fill="#DBCDF9"/>
</svg>
