<svg width="202" height="134" viewBox="0 0 202 134" fill="none" xmlns="http://www.w3.org/2000/svg">
<g clip-path="url(#clip0_74_142)">
<g opacity="0.9">
<g opacity="0.9">
<path opacity="0.9" d="M61.5578 120.473C44.6106 110.804 34.5906 96.4483 39.1775 88.4091C43.7644 80.3699 61.2212 81.6914 78.1684 91.3608C95.1156 101.03 105.136 115.386 100.549 123.425C95.9618 131.464 78.505 130.143 61.5578 120.473Z" fill="#606063"/>
<path opacity="0.9" d="M96.673 126.95L110.77 118.306L38.385 77.0061L38.283 93.6361L96.683 126.951L96.673 126.95Z" fill="#606063"/>
<path opacity="0.9" d="M41.893 80.74L7.205 60.947C7.01091 60.8359 6.79625 60.7654 6.57408 60.7398C6.3519 60.7143 6.12684 60.7341 5.91257 60.7982C5.6983 60.8622 5.49929 60.9692 5.32763 61.1125C5.15597 61.2559 5.01524 61.4326 4.914 61.632L2.984 65.422C2.51054 66.3526 2.40711 67.428 2.6945 68.4317C2.98189 69.4354 3.63879 70.2931 4.533 70.832L40.421 92.455L41.893 80.735V80.74Z" fill="#606063"/>
</g>
<path opacity="0.9" d="M66.9452 111.032C46.5217 99.3791 34.2864 82.3589 39.6169 73.0163C44.9474 63.6738 65.8252 65.5467 86.2488 77.1996C106.672 88.8525 118.908 105.873 113.577 115.215C108.247 124.558 87.3688 122.685 66.9452 111.032Z" fill="url(#paint0_linear_74_142)"/>
<g opacity="0.9">
<path opacity="0.9" d="M101.565 120.4C102.725 112.13 93.155 99.9122 78.168 91.3602C63.181 82.8082 47.793 80.7862 41.263 85.9942" stroke="#606063" stroke-width="1.652"/>
<path opacity="0.9" d="M40.335 73.4261C37.928 77.6461 39.385 83.8481 44.295 90.6761C49.157 97.4391 57.223 104.533 67.355 110.316C77.487 116.099 87.699 119.431 95.995 120.176C104.37 120.928 110.452 119.026 112.859 114.808C115.266 110.59 113.809 104.386 108.899 97.5581C104.037 90.7951 95.971 83.7011 85.839 77.9181C75.707 72.1351 65.495 68.8031 57.199 68.0581C48.824 67.3081 42.742 69.2081 40.334 73.4261H40.335Z" stroke="#979797" stroke-width="1.652"/>
</g>
<path opacity="0.9" d="M36.99 77.0862L36.72 91.5162" stroke="url(#paint1_linear_74_142)" stroke-width="2.449"/>
<mask id="mask0_74_142" style="mask-type:alpha" maskUnits="userSpaceOnUse" x="-6" y="57" width="127" height="77">
<g opacity="0.9">
<path opacity="0.9" d="M-5.03 57.228H120.933V133.675H-5.03V57.228Z" fill="white"/>
<path opacity="0.9" fill-rule="evenodd" clip-rule="evenodd" d="M61.558 120.473C46.668 111.977 37.126 99.865 38.138 91.597C38.173 91.31 38.045 91.027 37.798 90.877L4.534 70.833C3.63979 70.2941 2.9829 69.4364 2.6955 68.4327C2.40811 67.4289 2.51155 66.3536 2.985 65.423L4.915 61.633C5.01624 61.4336 5.15697 61.2569 5.32863 61.1135C5.50029 60.9702 5.6993 60.8632 5.91358 60.7991C6.12785 60.7351 6.35291 60.7152 6.57508 60.7408C6.79726 60.7664 7.01191 60.8369 7.206 60.948L38.08 78.563C38.21 78.638 38.374 78.543 38.375 78.393C38.365 78.068 38.365 77.748 38.381 77.433L38.383 77.021C38.401 77.017 38.408 77.013 38.408 77.007C38.528 75.567 38.925 74.227 39.616 73.007C44.946 63.664 65.824 65.537 86.248 77.19C106.672 88.843 118.906 105.863 113.576 115.205C112.886 116.415 111.933 117.438 110.756 118.275C110.763 118.293 110.763 118.301 110.757 118.305L110.214 118.638C110.189 118.654 110.164 118.668 110.137 118.685C110.09 118.715 110.042 118.745 109.994 118.773L98.384 125.893C91.81 131.023 76.486 128.983 61.559 120.465L61.558 120.473Z" fill="black"/>
</g>
</mask>
<g mask="url(#mask0_74_142)">
<path opacity="0.9" d="M61.558 120.473L60.344 122.6L61.558 120.473ZM4.534 70.833L3.27 72.93L4.534 70.832V70.833ZM2.984 65.433L0.800997 64.323L2.984 65.433ZM4.914 61.643L7.097 62.753L4.914 61.643ZM7.204 60.958L8.42 58.82L7.206 60.947L7.204 60.958ZM38.381 77.444L40.827 77.558L40.829 77.508V77.458L38.379 77.443L38.381 77.444ZM39.616 73.028L37.5 71.802L39.627 73.016L39.616 73.028ZM86.25 77.2L87.464 75.073L86.25 77.2ZM113.578 115.215L115.705 116.429L113.578 115.215ZM110.215 118.648L108.935 116.56L108.923 116.567L108.913 116.574L110.216 118.648H110.215ZM110.138 118.695L108.852 116.612L110.138 118.695ZM109.995 118.783L108.737 116.681L108.715 116.695L109.995 118.783ZM98.385 125.903L97.105 123.815L96.987 123.888L96.877 123.972L98.383 125.902L98.385 125.903ZM110.759 118.316L112.039 120.403L110.759 118.316ZM110.758 118.286L112.178 120.283L110.758 118.286ZM38.384 77.02L35.934 77.005L38.384 77.02ZM38.081 78.563L39.295 76.436L38.081 78.563ZM38.409 77.006L35.969 76.8L38.409 77.006ZM38.139 91.596L35.709 91.298L38.139 91.596ZM37.799 90.876L39.063 88.778L37.799 90.876ZM35.699 91.298C35.072 96.418 37.701 102.178 41.967 107.483C46.309 112.883 52.667 118.223 60.335 122.599L62.762 118.345C55.54 114.225 49.682 109.261 45.784 104.415C41.81 99.473 40.174 95.045 40.56 91.895L35.698 91.299L35.699 91.298ZM3.27 72.93L36.535 92.973L39.063 88.778L5.798 68.736L3.27 72.93ZM0.801997 64.31C0.0477848 65.7926 -0.116946 67.5058 0.34095 69.1049C0.798846 70.704 1.84539 72.0704 3.27 72.929L5.798 68.734C5.43393 68.5147 5.16651 68.1656 5.0496 67.757C4.9327 67.3484 4.97501 66.9107 5.168 66.532L0.801997 64.312V64.31ZM2.732 60.52L0.801997 64.31L5.167 66.532L7.097 62.742L2.732 60.52ZM8.42 58.82C7.93796 58.5449 7.40507 58.3705 6.85363 58.3073C6.30219 58.2442 5.74367 58.2938 5.21194 58.4529C4.6802 58.612 4.18631 58.8775 3.76019 59.2332C3.33408 59.5888 2.98462 60.0273 2.733 60.522L7.098 62.744C6.892 63.15 6.398 63.3 5.993 63.074L8.42 58.82ZM39.296 76.437L8.42 58.82L5.99 63.073L36.868 80.7L39.295 76.446L39.296 76.437ZM35.936 77.319C35.9184 77.7038 35.9161 78.0891 35.929 78.474L40.824 78.314C40.8155 78.0584 40.8172 77.8025 40.829 77.547L35.936 77.32V77.319ZM35.936 77.006L35.934 77.418L40.832 77.448L40.834 77.036L35.936 77.006ZM37.491 71.803C36.609 73.349 36.119 75.037 35.971 76.801L40.851 77.211C40.945 76.095 41.246 75.105 41.746 74.229L37.5 71.802L37.491 71.803ZM87.463 75.073C77.018 69.113 66.355 65.591 57.493 64.796C48.867 64.022 40.921 65.792 37.491 71.803L41.745 74.23C43.645 70.9 48.805 68.934 57.045 69.674C65.06 70.394 75.048 73.634 85.025 79.327L87.452 75.073H87.463ZM115.705 116.429C119.135 110.419 116.605 102.677 111.56 95.645C106.366 88.42 97.91 81.033 87.463 75.073L85.036 79.327C95.014 85.02 102.886 91.97 107.583 98.503C112.418 105.23 113.351 110.67 111.451 114.003L115.705 116.43V116.429ZM112.175 120.282C113.618 119.256 114.822 117.974 115.705 116.429L111.45 114C110.95 114.875 110.25 115.638 109.338 116.287L112.175 120.28V120.282ZM111.495 120.735L112.038 120.402L109.478 116.227L108.935 116.56L111.495 120.735ZM108.912 116.575L108.852 116.613L111.425 120.78L111.518 120.722L108.912 116.575ZM111.252 120.875L111.424 120.77L108.851 116.603L108.736 116.673L111.252 120.876V120.875ZM99.664 127.981L111.264 120.861L108.704 116.686L97.094 123.806L99.654 127.982L99.664 127.981ZM60.344 122.591C68.031 126.977 75.884 129.736 82.756 130.721C89.506 131.687 95.813 131.004 99.89 127.824L96.877 123.962C94.379 125.912 89.737 126.772 83.451 125.862C77.285 124.979 70.013 122.459 62.771 118.328L60.344 122.582V122.591ZM109.544 120.417C107.934 119.497 107.896 117.187 109.478 116.217L112.038 120.392C112.401 120.168 112.7 119.854 112.905 119.48C113.11 119.106 113.215 118.685 113.208 118.259C113.201 117.832 113.084 117.415 112.867 117.047C112.651 116.68 112.342 116.375 111.972 116.163L109.544 120.417ZM109.339 116.279C109.003 116.518 108.733 116.839 108.553 117.21C108.373 117.581 108.289 117.992 108.31 118.404C108.33 118.816 108.454 119.217 108.67 119.568C108.885 119.92 109.186 120.212 109.544 120.417L111.972 116.163C113.532 117.053 113.62 119.245 112.176 120.273L109.339 116.28V116.279ZM40.833 77.035C40.823 78.902 38.803 80.065 37.183 79.14L39.61 74.886C39.2373 74.6743 38.8157 74.5636 38.387 74.565C37.9583 74.5664 37.5375 74.6798 37.1661 74.8939C36.7948 75.108 36.4858 75.4155 36.2699 75.7858C36.0539 76.1561 35.9385 76.5764 35.935 77.005L40.833 77.035ZM36.868 80.7C37.2694 80.9276 37.7233 81.0465 38.1848 81.0448C38.6462 81.0431 39.0992 80.921 39.499 80.6904C39.8987 80.4599 40.2313 80.129 40.4639 79.7304C40.6965 79.3319 40.821 78.8795 40.825 78.418L35.927 78.388C35.937 76.666 37.799 75.592 39.295 76.446L36.868 80.7ZM37.184 79.15C37.5427 79.354 37.9469 79.4645 38.3594 79.4713C38.772 79.4781 39.1796 79.381 39.5448 79.189C39.91 78.997 40.2211 78.7162 40.4493 78.3725C40.6776 78.0287 40.8157 77.6331 40.851 77.222L35.971 76.812C36.121 75.047 38.053 74.007 39.613 74.897L37.186 79.151L37.184 79.15ZM40.571 91.905C40.716 90.725 40.193 89.47 39.063 88.789L36.535 92.984C36.2506 92.814 36.0214 92.5655 35.8749 92.2684C35.7283 91.9713 35.6707 91.6381 35.709 91.309L40.571 91.905Z" fill="url(#paint2_linear_74_142)"/>
</g>
<mask id="mask1_74_142" style="mask-type:alpha" maskUnits="userSpaceOnUse" x="72" y="32" width="74" height="74">
<g opacity="0.9">
<path opacity="0.9" d="M72.42 32.208H145.252V105.04H72.42V32.208Z" fill="white"/>
<path opacity="0.9" fill-rule="evenodd" clip-rule="evenodd" d="M88.356 86.2559C81.918 79.8179 85.239 66.0599 95.774 55.5259C106.309 44.9919 120.067 41.6709 126.504 48.1079L129.471 51.0749C135.908 57.5129 132.587 71.2709 122.053 81.8049C111.519 92.3389 97.76 95.6599 91.323 89.2229L88.356 86.2559Z" fill="black"/>
</g>
</mask>
<g mask="url(#mask1_74_142)">
<path opacity="0.9" d="M126.515 48.1202L124.771 49.8642V49.8612L126.517 48.1212L126.515 48.1202ZM129.471 51.0762L131.215 49.3322L129.471 51.0762ZM90.1 84.5122L90.217 84.6382L90.297 84.7342L90.342 84.7942L90.356 84.8142L90.342 84.7942L90.297 84.7342L90.217 84.6382L90.1 84.5122L86.612 88.0002L86.495 87.8742L86.415 87.7782L86.37 87.7182L86.356 87.6982L86.37 87.7182L86.415 87.7782L86.495 87.8742L86.612 88.0002L90.1 84.5122ZM97.518 57.2702C92.518 62.2702 89.318 67.9542 88.098 73.0062C86.868 78.1062 87.718 82.1312 90.1 84.5122L86.612 88.0002C82.556 83.9442 81.849 77.8702 83.302 71.8502C84.767 65.7802 88.494 59.3182 94.029 53.7832L97.517 57.2712L97.518 57.2702ZM124.761 49.8522C122.379 47.4722 118.354 46.6192 113.254 47.8502C108.204 49.0702 102.518 52.2702 97.518 57.2702L94.03 53.7802C99.565 48.2452 106.027 44.5182 112.097 43.0532C118.119 41.5992 124.192 42.3062 128.249 46.3632L124.761 49.8512V49.8522ZM124.771 49.8622L128.251 46.3652C128.255 46.3702 128.261 46.3752 128.265 46.3802L124.772 49.8622H124.771ZM127.729 52.8202L124.773 49.8642L128.261 46.3762L131.217 49.3322L127.729 52.8202ZM120.31 80.0602C125.31 75.0602 128.51 69.3762 129.73 64.3242C130.96 59.2242 130.11 55.1992 127.728 52.8182L131.216 49.3302C135.272 53.3862 135.978 59.4602 134.526 65.4802C133.061 71.5502 129.334 78.0122 123.799 83.5472L120.311 80.0592L120.31 80.0602ZM93.067 87.4802C95.447 89.8602 99.473 90.7132 104.573 89.4822C109.625 88.2622 115.309 85.0622 120.309 80.0622L123.797 83.5502C118.262 89.0852 111.801 92.8102 105.73 94.2772C99.708 95.7312 93.635 95.0242 89.58 90.9672L93.068 87.4792L93.067 87.4802ZM90.1 84.5122L93.067 87.4792L89.579 90.9672L86.612 88.0002L90.1 84.5122Z" fill="#612F01"/>
<path opacity="0.9" d="M91.323 89.2232C97.761 95.6612 111.52 92.3402 122.053 81.8052C132.586 71.2702 135.908 57.5122 129.47 51.0752L126.503 48.1082L88.355 86.2561L91.322 89.2232H91.323Z" fill="#FEDC90"/>
<path opacity="0.9" d="M88.356 86.2561C94.794 92.6941 108.552 89.3731 119.086 78.8381C129.62 68.3031 132.941 54.5451 126.504 48.1081C120.067 41.6711 106.308 44.9911 95.774 55.5261C85.24 66.0611 81.919 79.8191 88.356 86.2561Z" fill="#D1884F"/>
</g>
<mask id="mask2_74_142" style="mask-type:alpha" maskUnits="userSpaceOnUse" x="135" y="-2" width="74" height="74">
<g opacity="0.9">
<path opacity="0.9" d="M135.487 -1.08789H208.319V71.7441H135.487V-1.08789Z" fill="white"/>
<path opacity="0.9" fill-rule="evenodd" clip-rule="evenodd" d="M189.586 55.758L189.534 55.81C183.096 62.248 169.338 58.927 158.804 48.392C148.27 37.857 144.948 24.1 151.384 17.662L154.351 14.695C160.789 8.25701 174.547 11.578 185.081 22.113C195.615 32.648 198.936 46.406 192.498 52.843L189.584 55.758H189.586Z" fill="black"/>
</g>
</mask>
<g mask="url(#mask2_74_142)">
<path opacity="0.9" d="M189.586 55.7582L187.829 54.0282L187.836 54.0222L187.842 54.0162L189.586 55.7602V55.7582ZM151.386 17.6632L153.13 15.9192L154.874 17.6632L153.13 19.4072L151.386 17.6632ZM151.386 17.6632L149.642 19.4072L147.898 17.6632L149.642 15.9192L151.386 17.6632ZM154.353 14.6962L152.609 12.9522L154.353 14.6962ZM192.5 52.8432L194.244 54.5872L192.5 52.8432ZM187.8 54.0662L187.84 54.0262L191.353 57.4892L191.289 57.5542L187.801 54.0662H187.8ZM160.557 46.6482C165.557 51.6482 171.242 54.8482 176.294 56.0682C181.394 57.2982 185.419 56.4482 187.8 54.0662L191.288 57.5542C187.232 61.6102 181.158 62.3172 175.136 60.8642C169.066 59.3992 162.604 55.6722 157.07 50.1372L160.557 46.6492V46.6482ZM153.139 19.4062C150.759 21.7882 149.907 25.8122 151.139 30.9122C152.359 35.9642 155.559 41.6482 160.559 46.6482L157.072 50.1362C151.537 44.6012 147.81 38.1402 146.345 32.0702C144.891 26.0482 145.598 19.9752 149.653 15.9202L153.141 19.4072L153.139 19.4062ZM153.139 15.9182L149.651 19.4062L153.139 15.9182ZM156.106 16.4382L153.139 19.4052L149.651 15.9172L152.618 12.9502L156.106 16.4382ZM183.349 23.8562C178.349 18.8562 172.664 15.6562 167.613 14.4362C162.513 13.2062 158.488 14.0562 156.106 16.4382L152.618 12.9502C156.675 8.89416 162.748 8.18716 168.77 9.64016C174.84 11.1052 181.302 14.8322 186.837 20.3672L183.349 23.8552V23.8562ZM190.766 51.0982C193.148 48.7182 194 44.6922 192.769 39.5922C191.549 34.5402 188.349 28.8562 183.349 23.8562L186.837 20.3682C192.371 25.9022 196.097 32.3642 197.563 38.4352C199.017 44.4572 198.31 50.5302 194.253 54.5852L190.765 51.0972L190.766 51.0982ZM187.852 54.0132L190.766 51.0982L194.254 54.5862L191.34 57.5012L187.852 54.0132Z" fill="#612F01"/>
<path opacity="0.9" d="M192.5 52.8421C198.937 46.4041 195.616 32.6461 185.082 22.1121C174.548 11.5781 160.789 8.25709 154.352 14.6941L151.385 17.6611L189.533 55.8091L192.5 52.8421Z" fill="#D1884F"/>
<path opacity="0.9" d="M189.534 55.8001C195.971 49.3621 192.65 35.6041 182.116 25.0701C171.582 14.5361 157.823 11.2151 151.386 17.6521C144.949 24.0891 148.269 37.8481 158.803 48.3821C169.337 58.9161 183.096 62.2371 189.533 55.8001H189.534Z" fill="#FEDC90"/>
<g opacity="0.9">
<path opacity="0.5" d="M48.762 22.0742C48.602 21.0272 47.092 21.0272 46.934 22.0742L45.989 28.2762C45.929 28.6762 45.614 28.9902 45.214 29.0512L39.012 29.9962C37.965 30.1562 37.965 31.6662 39.012 31.8262L45.214 32.7712C45.614 32.8312 45.928 33.1462 45.989 33.5462L46.934 39.7482C47.094 40.7952 48.604 40.7952 48.762 39.7482L49.707 33.5462C49.767 33.1462 50.082 32.8322 50.482 32.7712L56.684 31.8262C57.731 31.6662 57.731 30.1562 56.684 29.9962L50.482 29.0512C50.082 28.9912 49.768 28.6762 49.707 28.2762L48.762 22.0742ZM183.4 85.5702C183.24 84.5232 181.73 84.5232 181.572 85.5702L180.627 91.7722C180.567 92.1722 180.252 92.4862 179.852 92.5472L173.65 93.4922C172.603 93.6522 172.603 95.1622 173.65 95.3202L179.852 96.2652C180.252 96.3252 180.566 96.6402 180.627 97.0402L181.572 103.24C181.732 104.288 183.242 104.288 183.4 103.24L184.345 97.0402C184.405 96.6402 184.72 96.3262 185.12 96.2652L191.322 95.3202C192.37 95.1602 192.37 93.6502 191.322 93.4902L185.12 92.5452C184.72 92.4852 184.406 92.1702 184.345 91.7702L183.4 85.5682V85.5702ZM85.974 7.3082C86.134 6.2612 87.644 6.2612 87.804 7.3082L88.104 9.3482C88.164 9.7482 88.479 10.0622 88.879 10.1232L90.919 10.4232C91.966 10.5832 91.966 12.0932 90.919 12.2532L88.879 12.5532C88.479 12.6132 88.165 12.9282 88.104 13.3282L87.804 15.3682C87.644 16.4152 86.134 16.4152 85.974 15.3682L85.674 13.3282C85.614 12.9282 85.299 12.6142 84.899 12.5532L82.859 12.2532C81.812 12.0932 81.812 10.5832 82.859 10.4232L84.899 10.1232C85.299 10.0632 85.613 9.7482 85.674 9.3482L85.974 7.3082Z" fill="#AEA0D6"/>
</g>
</g>
</g>
</g>
<defs>
<linearGradient id="paint0_linear_74_142" x1="39.6169" y1="73.0163" x2="20.3134" y2="106.849" gradientUnits="userSpaceOnUse">
<stop stop-color="#404042"/>
<stop offset="1" stop-color="#48484B"/>
</linearGradient>
<linearGradient id="paint1_linear_74_142" x1="40.016" y1="78.8362" x2="33.695" y2="89.7662" gradientUnits="userSpaceOnUse">
<stop stop-color="#404042"/>
<stop offset="1" stop-color="#48484B"/>
</linearGradient>
<linearGradient id="paint2_linear_74_142" x1="60.591" y1="65.065" x2="55.695" y2="126.187" gradientUnits="userSpaceOnUse">
<stop stop-color="#404042"/>
<stop offset="1" stop-color="#48484B"/>
</linearGradient>
<clipPath id="clip0_74_142">
<rect width="202" height="134" fill="white"/>
</clipPath>
</defs>
</svg>
