<svg width="24" height="24" viewBox="0 0 24 24" fill="none" xmlns="http://www.w3.org/2000/svg">
<path fill-rule="evenodd" clip-rule="evenodd" d="M12 24C18.6274 24 24 18.6274 24 12C24 5.37258 18.6274 0 12 0C5.37258 0 0 5.37258 0 12C0 18.6274 5.37258 24 12 24ZM12.8447 5.89646C12.8872 5.84587 12.9637 5.78633 13.0146 5.76419C13.0655 5.74202 13.1439 5.72336 13.1889 5.7227C13.2339 5.72206 13.8844 5.86483 14.6345 6.03999C15.3846 6.21515 16.0119 6.35846 16.0285 6.35846C16.0451 6.35846 16.1453 6.27214 16.2511 6.16662C16.5942 5.82452 17.0193 5.67659 17.4721 5.74183C18.1111 5.83389 18.6101 6.32586 18.7051 6.95762C18.8352 7.82244 18.1644 8.60295 17.2912 8.60295C16.8481 8.60295 16.5184 8.45787 16.2203 8.13179C16.0505 7.94601 15.9521 7.7606 15.8831 7.49645L15.8353 7.31407L14.6898 7.04582C14.0598 6.89829 13.5272 6.78416 13.5062 6.79219C13.4634 6.80863 12.6818 8.62757 12.7068 8.65254C12.7156 8.66133 12.8899 8.68799 13.0942 8.7118C14.3132 8.85378 15.4435 9.22585 16.3752 9.79192L16.6709 9.97157L16.8453 9.86532C17.2835 9.59838 17.8486 9.52367 18.3695 9.66383C18.7814 9.77466 19.2609 10.1429 19.4863 10.5215C20.0242 11.4249 19.7358 12.6106 18.8472 13.1492L18.7335 13.2182L18.7333 13.4356C18.7327 14.1614 18.4949 14.8883 18.0403 15.5544C17.0653 16.9829 15.244 17.9476 13.0009 18.2235C12.59 18.2741 11.3512 18.2742 10.9384 18.2238C8.42696 17.9169 6.41202 16.7178 5.58584 15.0387C5.3438 14.5467 5.24152 14.1447 5.21538 13.5822L5.19657 13.1778L5.07498 13.101C5.00807 13.0588 4.89023 12.961 4.81307 12.8837C4.29201 12.3615 4.10794 11.5923 4.33994 10.9066C4.604 10.1261 5.32966 9.59962 6.14614 9.59625C6.50289 9.59477 6.72203 9.64584 7.04427 9.80554L7.32064 9.94251L7.54473 9.79832C7.90348 9.56747 8.52863 9.28196 9.06303 9.10486C9.81397 8.856 10.4673 8.72579 11.2674 8.66555C11.4566 8.65132 11.6225 8.62797 11.6361 8.61371C11.6496 8.59946 11.9097 8.00294 12.214 7.28813C12.5183 6.57333 12.8021 5.94705 12.8447 5.89646ZM17.7544 7.1231C17.7371 6.96996 17.6657 6.85913 17.5205 6.76035C17.3338 6.63323 17.0498 6.68813 16.9038 6.87958C16.6633 7.1948 16.8808 7.63936 17.2753 7.63936C17.5677 7.63936 17.786 7.40406 17.7544 7.1231ZM10.4175 13.3649C10.6705 12.8195 10.3636 12.1793 9.78 12.0352C9.41815 11.9458 9.09236 12.0487 8.83652 12.3333C8.42872 12.7868 8.55969 13.5369 9.09394 13.8076C9.60544 14.0668 10.1813 13.8742 10.4175 13.3649ZM15.3292 12.9099C15.3075 12.5359 15.1024 12.2326 14.7722 12.0865C14.602 12.0112 14.2987 11.9893 14.1217 12.0394C13.4344 12.2342 13.1921 13.1156 13.6861 13.6239C14.0751 14.0241 14.6869 14.0241 15.0758 13.6239C15.2677 13.4265 15.3463 13.2051 15.3292 12.9099ZM11.9848 15.9159C11.3655 15.9169 10.8792 15.7718 10.3707 15.4342C10.0725 15.2362 9.73926 15.2855 9.59944 15.5482C9.47923 15.7741 9.5486 16.0304 9.77587 16.1998C9.99231 16.3612 10.6126 16.6582 10.9115 16.7436C11.9817 17.0494 13.1641 16.8628 14.0823 16.2432C14.2619 16.122 14.3084 16.073 14.3518 15.9595C14.4412 15.7254 14.3728 15.5234 14.1538 15.3743C13.9845 15.2591 13.8155 15.2794 13.5461 15.4476C13.019 15.7765 12.5573 15.915 11.9848 15.9159Z" fill="#8277AF"/>
</svg>
