<svg width="17" height="17" viewBox="0 0 17 17" fill="none" xmlns="http://www.w3.org/2000/svg">
<path d="M16.065 1.02H14.11V0.17C14.11 0.0765 14.0335 0 13.94 0H3.06C2.9665 0 2.89 0.0765 2.89 0.17V1.02H0.935C0.687023 1.02 0.449202 1.11851 0.273855 1.29386C0.0985086 1.4692 0 1.70702 0 1.955V5.1C0 6.83612 1.275 8.279 2.93675 8.5425C3.264 11.0118 5.24875 12.9583 7.735 13.2281V15.4636H3.57C3.19388 15.4636 2.89 15.7675 2.89 16.1436V16.83C2.89 16.9235 2.9665 17 3.06 17H13.94C14.0335 17 14.11 16.9235 14.11 16.83V16.1436C14.11 15.7675 13.8061 15.4636 13.43 15.4636H9.265V13.2281C11.7513 12.9583 13.736 11.0118 14.0632 8.5425C15.725 8.279 17 6.83612 17 5.1V1.955C17 1.70702 16.9015 1.4692 16.7261 1.29386C16.5508 1.11851 16.313 1.02 16.065 1.02ZM2.89 6.9615C2.10162 6.70863 1.53 5.96913 1.53 5.1V2.55H2.89V6.9615ZM15.47 5.1C15.47 5.97125 14.8984 6.71075 14.11 6.9615V2.55H15.47V5.1Z" fill="#ED4B9E"/>
</svg>
