<svg width="20" height="19" viewBox="0 0 20 19" fill="none" xmlns="http://www.w3.org/2000/svg">
<path d="M11.5225 19H7.88252C7.65445 19 7.43322 18.926 7.25552 18.7903C7.07782 18.6545 6.95432 18.4651 6.90552 18.2536L6.49852 16.4644C5.95558 16.2385 5.44075 15.956 4.96352 15.6221L3.12652 16.1776C2.90908 16.2435 2.67447 16.2367 2.46164 16.1584C2.24881 16.0802 2.07057 15.9352 1.95652 15.7474L0.132521 12.755C0.0196664 12.5671 -0.0226964 12.3484 0.0123634 12.1347C0.0474233 11.9209 0.15783 11.7248 0.325521 11.5784L1.75052 10.3439C1.68572 9.78462 1.68572 9.22031 1.75052 8.66107L0.325521 7.42936C0.157592 7.2829 0.0470356 7.08661 0.01197 6.87266C-0.0230955 6.65871 0.0194104 6.43979 0.132521 6.25179L1.95252 3.25752C2.06657 3.06978 2.24481 2.92475 2.45764 2.84649C2.67047 2.76824 2.90508 2.76147 3.12252 2.82732L4.95952 3.38287C5.20352 3.21193 5.45752 3.05239 5.71952 2.90804C5.97252 2.77319 6.23252 2.65068 6.49852 2.54147L6.90652 0.754217C6.95509 0.542631 7.07835 0.353165 7.25586 0.217232C7.43338 0.0812985 7.65448 0.00706382 7.88252 0.00683594H11.5225C11.7506 0.00706382 11.9717 0.0812985 12.1492 0.217232C12.3267 0.353165 12.4499 0.542631 12.4985 0.754217L12.9105 2.54242C13.1905 2.66018 13.4645 2.79218 13.7295 2.93938C13.9765 3.07518 14.2155 3.22428 14.4455 3.38477L16.2835 2.82922C16.5008 2.76361 16.7352 2.7705 16.9478 2.84875C17.1604 2.92699 17.3385 3.07189 17.4525 3.25942L19.2725 6.25369C19.5045 6.6402 19.4245 7.12927 19.0795 7.43031L17.6545 8.66487C17.7193 9.22411 17.7193 9.78842 17.6545 10.3477L19.0795 11.5822C19.4245 11.8842 19.5045 12.3723 19.2725 12.7588L17.4525 15.7531C17.3385 15.9409 17.1602 16.0859 16.9474 16.1641C16.7346 16.2424 16.4999 16.2492 16.2825 16.1833L14.4455 15.6278C13.9686 15.9614 13.4541 16.2436 12.9115 16.4692L12.4985 18.2536C12.4497 18.465 12.3264 18.6542 12.1489 18.79C11.9714 18.9257 11.7504 18.9998 11.5225 19ZM9.69852 5.70479C8.63765 5.70479 7.62024 6.105 6.87009 6.81738C6.11995 7.52976 5.69852 8.49596 5.69852 9.50342C5.69852 10.5109 6.11995 11.4771 6.87009 12.1895C7.62024 12.9018 8.63765 13.3021 9.69852 13.3021C10.7594 13.3021 11.7768 12.9018 12.5269 12.1895C13.2771 11.4771 13.6985 10.5109 13.6985 9.50342C13.6985 8.49596 13.2771 7.52976 12.5269 6.81738C11.7768 6.105 10.7594 5.70479 9.69852 5.70479Z" fill="#8277AF"/>
</svg>
