<svg width="24" height="24" viewBox="0 0 24 24" fill="none" xmlns="http://www.w3.org/2000/svg">
<path fill-rule="evenodd" clip-rule="evenodd" d="M12 24C18.6274 24 24 18.6274 24 12C24 5.37258 18.6274 0 12 0C5.37258 0 0 5.37258 0 12C0 18.6274 5.37258 24 12 24ZM4.03142 11.0266C4.21028 10.9276 16.3543 5.48466 17.3396 5.06176C17.6119 4.94493 17.8955 4.96009 18.0668 5.10068C18.1417 5.16215 18.2184 5.26733 18.2633 5.37036C18.3271 5.51648 18.337 5.58251 18.3366 5.86013C18.3363 6.15396 18.2406 6.70207 17.2013 12.3634C16.5771 15.7637 16.0465 18.6237 16.0223 18.7189C15.9597 18.9649 15.8108 19.2011 15.6584 19.2962C15.4879 19.4027 15.2252 19.3902 14.9921 19.2646C14.9033 19.2167 14.0712 18.5284 13.1432 17.7352C12.2152 16.942 11.439 16.3006 11.4184 16.3098C11.3978 16.3191 10.9821 16.7722 10.4947 17.3169C10.0073 17.8615 9.55335 18.3413 9.4859 18.383C9.41847 18.4247 9.30431 18.4681 9.23222 18.4794L9.10115 18.5001L9.22176 16.5064C9.28812 15.4099 9.3471 14.4984 9.35283 14.4809C9.35859 14.4634 10.7899 12.9555 12.5335 11.1299C14.2772 9.30426 15.7201 7.77556 15.7399 7.73276C15.7699 7.66807 15.7683 7.64598 15.7306 7.60197C15.6767 7.53908 15.5612 7.53398 15.4271 7.58856C15.3736 7.61028 13.5521 8.92551 11.3793 10.5113L7.42878 13.3944L5.68899 12.7645C4.73212 12.418 3.91014 12.1113 3.86236 12.083C3.36757 11.7893 3.43706 11.3552 4.03142 11.0266Z" fill="#8277AF"/>
</svg>
