<svg width="26" height="20" viewBox="0 0 26 20" fill="none" xmlns="http://www.w3.org/2000/svg">
<path fill-rule="evenodd" clip-rule="evenodd" d="M17.125 0.074267C15.0439 0.428771 13.4002 1.86314 12.8499 3.80513C12.7551 4.13962 12.7357 4.33813 12.7329 4.99996C12.731 5.43647 12.7473 5.88742 12.769 6.002L12.8086 6.21042L12.4629 6.18055C10.216 5.98656 8.39728 5.5003 6.58719 4.60962C4.91552 3.78704 3.1737 2.49553 2.10568 1.28665C1.9461 1.10603 1.79269 0.965386 1.76473 0.974189C1.73682 0.982943 1.62616 1.17737 1.51877 1.40628C0.785939 2.96807 0.922719 4.77369 1.88008 6.17602C2.16032 6.58647 2.61679 7.07147 2.98769 7.35277L3.3737 7.64551H3.16442C2.71683 7.64551 1.78085 7.40736 1.27832 7.16566C1.16694 7.11212 1.05715 7.0683 1.03435 7.0683C0.96231 7.0683 1.05766 7.94999 1.17531 8.3716C1.63861 10.0322 2.94596 11.3454 4.68227 11.8942C4.97042 11.9853 5.17358 12.0716 5.13373 12.0861C4.90353 12.1693 4.14724 12.2256 3.55981 12.2031L2.9003 12.1779L2.9332 12.3014C2.98922 12.512 3.36584 13.1866 3.60022 13.4963C4.50197 14.6877 5.97405 15.5061 7.41084 15.6146C7.62833 15.6311 7.80623 15.661 7.80623 15.6811C7.80623 15.7624 6.6626 16.4307 5.96314 16.7582C4.37085 17.5034 2.79739 17.8259 0.944504 17.7866L0 17.7665L0.268051 17.9252C0.658444 18.1563 1.84115 18.7193 2.37277 18.9271C5.23424 20.0458 8.57498 20.3004 11.7284 19.6404C16.3692 18.669 20.1869 15.6309 22.1151 11.3747C22.9396 9.55483 23.3531 7.76764 23.3954 5.84172L23.4145 4.9759L23.7838 4.69601C24.2562 4.33804 24.7869 3.86102 25.1865 3.43523C25.5282 3.0712 26.0284 2.44266 25.9987 2.41467C25.9886 2.40515 25.8342 2.45358 25.6557 2.52237C24.9799 2.78269 23.4118 3.15778 23.1775 3.11521C23.1196 3.10468 23.1615 3.05768 23.3131 2.96307C23.6982 2.72281 24.386 2.05829 24.6783 1.64419C24.932 1.28458 25.3033 0.579616 25.3049 0.454217C25.3053 0.427665 24.9924 0.550611 24.6097 0.727383C23.9179 1.04692 23.0155 1.35481 22.3082 1.51263L21.9383 1.59512L21.629 1.32513C20.4347 0.282592 18.7114 -0.195965 17.125 0.074267Z" fill="#8277AF"/>
</svg>
