<svg width="23" height="13" viewBox="0 0 23 13" fill="none" xmlns="http://www.w3.org/2000/svg">
<path fill-rule="evenodd" clip-rule="evenodd" d="M15.9 13C15.9 13 17.1 13 17.1 11.9167C17.1 10.8333 15.9 7.58333 11.1 7.58333C6.30001 7.58333 5.10001 10.8333 5.10001 11.9167C5.10001 13 6.30001 13 6.30001 13H15.9ZM6.30546 11.9768C6.30545 11.9768 6.30527 11.9763 6.305 11.9753L6.30546 11.9768ZM6.32682 11.9167H15.8732C15.8774 11.9162 15.8832 11.9155 15.8902 11.9145C15.8936 11.914 15.8968 11.9135 15.9 11.9129C15.8983 11.6269 15.6998 10.7975 14.9889 10.0488C14.324 9.34847 13.1608 8.66667 11.1 8.66667C9.03923 8.66667 7.87602 9.34847 7.21111 10.0488C6.50025 10.7975 6.30176 11.6269 6.30002 11.9129C6.3032 11.9135 6.30646 11.914 6.30979 11.9145C6.31684 11.9155 6.32266 11.9162 6.32682 11.9167ZM15.8945 11.9768C15.8945 11.9768 15.8947 11.9762 15.895 11.9753L15.8945 11.9768ZM11.1 5.41667C11.7365 5.41667 12.347 5.18839 12.7971 4.78206C13.2472 4.37574 13.5 3.82464 13.5 3.25C13.5 2.67536 13.2472 2.12426 12.7971 1.71794C12.347 1.31161 11.7365 1.08333 11.1 1.08333C10.4635 1.08333 9.85304 1.31161 9.40295 1.71794C8.95286 2.12426 8.70001 2.67536 8.70001 3.25C8.70001 3.82464 8.95286 4.37574 9.40295 4.78206C9.85304 5.18839 10.4635 5.41667 11.1 5.41667ZM13.6456 5.5481C12.9705 6.15759 12.0548 6.5 11.1 6.5C10.1452 6.5 9.22955 6.15759 8.55442 5.5481C7.87929 4.9386 7.50001 4.11195 7.50001 3.25C7.50001 2.38805 7.87929 1.5614 8.55442 0.951903C9.22955 0.34241 10.1452 0 11.1 0C12.0548 0 12.9705 0.34241 13.6456 0.951903C14.3207 1.5614 14.7 2.38805 14.7 3.25C14.7 4.11195 14.3207 4.9386 13.6456 5.5481Z" fill="#7645D9"/>
<path fill-rule="evenodd" clip-rule="evenodd" d="M17.523 12.7075C17.6531 12.4335 17.7179 12.1332 17.7125 11.83C17.7125 10.6409 17.1158 9.41683 16.0137 8.56565C16.5638 8.39615 17.1369 8.31326 17.7125 8.31996C21.2225 8.31996 22.1 10.9525 22.1 11.83C22.1 12.7075 21.2225 12.7075 21.2225 12.7075H17.523Z" fill="#7645D9"/>
<path d="M18.1513 7.44243C17.5694 7.44243 17.0115 7.21131 16.6001 6.7999C16.1886 6.38849 15.9575 5.8305 15.9575 5.24868C15.9575 4.66686 16.1886 4.10887 16.6001 3.69747C17.0115 3.28606 17.5694 3.05493 18.1513 3.05493C18.7331 3.05493 19.2911 3.28606 19.7025 3.69747C20.1139 4.10887 20.345 4.66686 20.345 5.24868C20.345 5.8305 20.1139 6.38849 19.7025 6.7999C19.2911 7.21131 18.7331 7.44243 18.1513 7.44243Z" fill="#7645D9"/>
<path fill-rule="evenodd" clip-rule="evenodd" d="M4.57704 12.7075C4.44696 12.4335 4.38208 12.1332 4.3875 11.83C4.3875 10.6409 4.9842 9.41683 6.08634 8.56565C5.53623 8.39615 4.9631 8.31326 4.3875 8.31996C0.8775 8.31996 0 10.9525 0 11.83C0 12.7075 0.8775 12.7075 0.8775 12.7075H4.57704Z" fill="#7645D9"/>
<path d="M3.94874 7.44243C4.53056 7.44243 5.08855 7.21131 5.49996 6.7999C5.91136 6.38849 6.14249 5.8305 6.14249 5.24868C6.14249 4.66686 5.91136 4.10887 5.49996 3.69747C5.08855 3.28606 4.53056 3.05493 3.94874 3.05493C3.36692 3.05493 2.80893 3.28606 2.39752 3.69747C1.98612 4.10887 1.75499 4.66686 1.75499 5.24868C1.75499 5.8305 1.98612 6.38849 2.39752 6.7999C2.80893 7.21131 3.36692 7.44243 3.94874 7.44243Z" fill="#7645D9"/>
</svg>
